<svg id="Layer_1" data-name="Layer 1" xmlns="http://www.w3.org/2000/svg" viewBox="0 0 36 36"><defs><style>.cls-1{fill:#231f20;}.cls-2{fill:#fff;}.cls-3{fill:none;stroke:#231f20;stroke-miterlimit:10;}</style></defs><title>GD2EventIcons</title><path class="cls-1" d="M25.58,29.3A4.82,4.82,0,0,1,23.43,33a4.59,4.59,0,0,1-4.78,0,84,84,0,0,0-3.81-8.85,84.84,84.84,0,0,0-4.43-7.75,7.19,7.19,0,0,0,4.75-.46,7.3,7.3,0,0,0,3.4-3.37A65,65,0,0,0,21.41,21,64.59,64.59,0,0,0,25.58,29.3Z"/><path class="cls-1" d="M5.86,9.86a8.24,8.24,0,0,0,6.48.1,8.35,8.35,0,0,0,4.5-5,6,6,0,0,0-11,4.85Z"/><path class="cls-1" d="M6.51,11.33a6,6,0,0,0,11-4.85,7.1,7.1,0,0,1-5.07,6.13A7.2,7.2,0,0,1,6.51,11.33Z"/><ellipse class="cls-2" cx="17.93" cy="21.49" rx="1.34" ry="3.32" transform="translate(-6.56 7.94) rotate(-21.2)"/><line class="cls-3" x1="23.86" y1="33.91" x2="24.58" y2="35.2"/></svg>