<svg id="Layer_1" data-name="Layer 1" xmlns="http://www.w3.org/2000/svg" viewBox="0 0 36 36"><defs><style>.cls-1{fill:#231f20;}.cls-2{fill:#fff;}</style></defs><title>GD2EventIcons</title><path class="cls-1" d="M11.93,25.48c.45,1.37.89,2.49,1.22,3.27,2,.24,3.66.37,5,.46a56.41,56.41,0,0,0,7.53.15c1.76-.11,2.05-.24,3.5-.23,2,0,3.46.28,3.57-.08s-.46-.58-.6-.68c-2.18-1.45-5.67-.87-5.86-.84a34,34,0,0,1-11.19-.38,2.57,2.57,0,0,1-1.55-2.28,2.54,2.54,0,0,1,.75-1.71,53.4,53.4,0,0,0,9.17,0,52.9,52.9,0,0,0,8.93-1.51,20.71,20.71,0,0,0,.72-2.26,23.62,23.62,0,0,0,.4-9.69,84.71,84.71,0,0,1-11.65.83A85.62,85.62,0,0,1,11,9.92c-.23-.21-3.34-3-4.7-2.1-.51.34-.79,1.22-.53,1.53s1.13-.25,2.05.07a2.59,2.59,0,0,1,1.37,1.42,107.53,107.53,0,0,0,2,11.94C11.53,24.22,11.93,25.48,11.93,25.48Z"/><circle class="cls-1" cx="29.86" cy="32.32" r="1.86"/><circle class="cls-1" cx="15.28" cy="32.32" r="1.86"/><path class="cls-1" d="M21.18,5.74,25.78,10c-1.16,0-2.37,0-3.63,0-2,0-4-.06-5.76-.16l-2-1.8Z"/><path class="cls-1" d="M11.55,5.59l1.34-.52A4.33,4.33,0,0,0,16,5.35a1.3,1.3,0,0,0,.69-1.76L18.22,3,20.9,5.51,14.1,7.87Z"/><polygon class="cls-1" points="1.67 28.11 7.15 29.84 9.18 19.97 3.71 18.25 1.67 28.11"/><path class="cls-1" d="M4.53,14.26l1,.31a2.2,2.2,0,0,0,1.36,2A1.7,1.7,0,0,0,9,15.68l1,.3-.75,3.65L3.78,17.9Z"/><path class="cls-1" d="M6.32,33.83l-1-.32a2.2,2.2,0,0,0-1.37-2,1.71,1.71,0,0,0-2.15.9l-1-.31.75-3.64,5.48,1.72Z"/><path class="cls-2" d="M4.2,28.11l0-.14-1.08-.65,0,.18-.25-.05.19-.95.25.05,0,.19,1.25-.19,0-.14.25.05-.13.64-.25-.05,0-.19-.3,0L4,27.52l.25.15,0-.2.25.05-.13.65Zm-.29-1.18L3.2,27l.61.37Z"/><path class="cls-2" d="M4.57,26.28l0-.19-1.16-.24,0,.19L3.15,26l.13-.63c.12-.61.51-.91,1-.8s.79.51.66,1.16l-.12.61Zm.13-.65a.59.59,0,0,0-.46-.78c-.37-.07-.62.15-.71.57l0,.14,1.17.24Z"/><path class="cls-2" d="M4.93,24.5l0-.2L3.81,24l0,.21-.26,0,.09-.46,1-.33-.83-.7.09-.45.26.05,0,.21,1.17.18,0-.2.26.05-.14.69-.26-.05,0-.21-.87-.14.75.65v0l-.94.31L5,24l0-.2.26.05-.14.68Z"/><path class="cls-2" d="M5.37,22.29l0-.21-1.17-.23,0,.2L4,22l.14-.69.25.05,0,.2,1.17.23,0-.2.25.05-.13.7Z"/><path class="cls-2" d="M5.61,21.06l0-.21-1.17-.23-.06.31.27.05-.06.28-.51-.11.29-1.45.51.1,0,.27L4.6,20l-.06.31,1.17.23,0-.21.26.06-.14.7Z"/><path class="cls-2" d="M6.14,26.91a.88.88,0,1,1,1-.68A.87.87,0,0,1,6.14,26.91Zm.29-1.43a.58.58,0,1,0-.23,1.13.58.58,0,1,0,.23-1.13Z"/><path class="cls-2" d="M6.3,24.44l.9.18,0-.21.25.05-.13.68-.26-.05,0-.19L6,24.66l0,.19-.26-.05.08-.43L7,23.75l-.79-.16,0,.21-.26-.05L6,23.08l.26.05,0,.18,1.43.29,0,.15Z"/><path class="cls-2" d="M7.49,23.19l0-.19-1.17-.23,0,.19-.25-.05.25-1.26.48.1L6.74,22l-.22,0-.1.5.45.09.1-.51.24.05-.1.51.48.09.1-.5-.23,0,.06-.28L8,22l-.25,1.25Z"/></svg>