<svg id="Layer_1" data-name="Layer 1" xmlns="http://www.w3.org/2000/svg" viewBox="0 0 61.2 79.2"><defs><style>.cls-1{fill:#fff;}</style></defs><title>TimelineFigures</title><path class="cls-1" d="M34.27,31c2.29,3.57,2.12,5.74,3.32,5.86s2.69-2,2.91-3.87a5.55,5.55,0,0,0-1.56-4.43c-1-.93-2.08-1.19-2.15-2.1,0-.67.51-1,.32-1.52-.27-.69-1.59-.77-1.86-.78-1-.05-1.47.62-2,.33s-.5-.88-.85-.87-.45.4-.49.5a1.62,1.62,0,0,0,.17,1.56c.08,0-.23-1.33,0-1.4s.43.31.44.67c0,.62-.8.83-1.06,1.38C30.91,27.33,32.89,28.81,34.27,31Z"/><path class="cls-1" d="M23.93,27.42c.12.15.32,0,.66.18a1,1,0,0,1,.29.25,1.05,1.05,0,0,1,.16.4c.1.27.23.29.47.6s.21.54.38.69c.4.34,1.22,0,1.38-.09.58-.25,1-.78,1.86-1.83a3.8,3.8,0,0,0,1-1.68,2.84,2.84,0,0,0,0-1,2.93,2.93,0,0,1,.16-.38c.2-.36.32-.41.31-.56s-.41-.29-.42-.53.13-.18.14-.37-.08-.21-.15-.45,0-.4-.08-.61-.31-.17-.47-.42,0-.39-.19-.58-.26-.11-.36-.27,0-.42-.1-.51-.28.13-.56.1c-.09,0-.13,0-.58-.35a2.51,2.51,0,0,0-.46-.29c-.3-.07-.38.12-.71.07s-.37-.25-.57-.21-.21.36-.55.55-.33,0-.61.18-.21.27-.48.44-.63.1-.75.31,0,.24,0,.52a1.85,1.85,0,0,1-.4.58c-.28.36-.34.37-.37.5s.12.32.07.6-.25.3-.25.53a.76.76,0,0,0,.37.58c.22.14.31,0,.43.17s-.05.5.07,1c.07.29.19.33.29.49a.55.55,0,0,1,.08.19,1.3,1.3,0,0,1,0,.52C23.92,27.35,23.9,27.37,23.93,27.42Z"/><path class="cls-1" d="M31,27.61c.42.49-.24,2-1.3,2.7-.14.09-.59.38-.85.22s-.1-.31-.34-.56-.4-.17-.57-.42-.08-.23-.2-.36-.27-.13-.31-.21c-.13-.23.69-.79,1.39-1.64s.95-1.57,1.17-1.5.05.13.22.66a2.1,2.1,0,0,0,.39.81C30.77,27.52,30.87,27.48,31,27.61Z"/><path class="cls-1" d="M28.22,34.75a6.55,6.55,0,0,0,.68,1.55c1.63,2.8,1.4,3.91,2.51,4.66,1.59,1.09,4.7.54,5.71-1.09.71-1.14-.3-1.73-1.19-7a6.68,6.68,0,0,0-1-3.18,5.69,5.69,0,0,0-3.41-2,2.25,2.25,0,0,0-1.65,0c-.51.3-.51.77-1.06,2.44-.61,1.84-.85,2-.87,2.88A5.73,5.73,0,0,0,28.22,34.75Z"/><path class="cls-1" d="M37.07,38.26A3.91,3.91,0,0,0,34,37a3.63,3.63,0,0,0-2.76,1c-.46.54-.35.9-.57,3.55-.19,2.42-.35,3,0,4a3.5,3.5,0,0,0,4,2.42A3.31,3.31,0,0,0,37.12,46c.24-.66-.07-.82,0-2.26.07-1.25.3-1.34.38-2.49S37.66,39.07,37.07,38.26Z"/><path class="cls-1" d="M30.32,48.51c0,1,.05,3.26.3,6.3.41,4.93.87,5.65,1.46,5.89a2.39,2.39,0,0,0,2.31-.63c1-1,.63-2.21,1-7.08a12.19,12.19,0,0,1,.5-3.13c.6-1.74,1.23-1.79,1.5-3.22a5.38,5.38,0,0,0-.73-3.85,4.67,4.67,0,0,0-.9-1c-.56-.49-2.06-1.79-3.63-1.32A2.68,2.68,0,0,0,30.49,42a3.05,3.05,0,0,0-.09,1.82C30.61,45,30.28,44.34,30.32,48.51Z"/><path class="cls-1" d="M36.7,65.33c-.23-3.19-.4-3.88-.84-4.66-.21-.37-1.34-2.39-3.09-2.43a1.81,1.81,0,0,0-1.45.53c-.53.75.26,2,1,3.64,1,2.27.36,1.73,1.82,5.79,1.57,4.37,1.37,4.87,1.18,5.18a5.18,5.18,0,0,1-1.71,1.32c-.71.36-1.26.46-1.26.7s.68.49,1.06.57a3.73,3.73,0,0,0,1.71-.13c.22-.06.5-.16,1.06-.36,1.27-.46,1.9-.7,2-.92.22-.5-.32-1.16-.6-1.58C36.76,71.73,37.09,71,36.7,65.33Z"/><path class="cls-1" d="M34.79,64.8c.55-3.15.55-3.86.31-4.72-.11-.41-.73-2.64-2.42-3.1a1.84,1.84,0,0,0-1.54.17c-.69.6-.22,2,.11,3.77.45,2.45-.06,1.77.38,6.06.47,4.62.16,5.06-.1,5.31a5,5,0,0,1-2,.87c-.78.18-1.33.14-1.39.38s.54.64.89.81a3.65,3.65,0,0,0,1.69.28c.23,0,.53,0,1.12-.09,1.34-.15,2-.22,2.16-.41.34-.43,0-1.21-.19-1.68C33.32,71,33.81,70.42,34.79,64.8Z"/><path class="cls-1" d="M27.77,32.17c-.27.27-.26.46-.89,1.36-.27.4-.48.67-.57.79a11,11,0,0,0-1.68,3c-.23.7-.41,1.24-.15,1.51s1.16.08,1.63-.17a7.69,7.69,0,0,0,2.24-2.51,4.73,4.73,0,0,1,.65-.75c.55-.53.82-.55,1.09-.84a2,2,0,0,0,0-2.66A1.89,1.89,0,0,0,27.77,32.17Z"/><path class="cls-1" d="M24.75,34.49c-1.25-2.42-1.2-1.79-2.11-3.6-.48-1-.89-1.94-1.43-1.92a.69.69,0,0,0-.44.26c-.72.82.46,2.35,1.47,6a6.29,6.29,0,0,0,1.31,2.89c.18.2,1.05,1.16,1.66.92s.54-.95.57-1.23C25.87,36.94,25.65,36.23,24.75,34.49Z"/><path class="cls-1" d="M21.44,26.85c-.09-.18,0-.3-.1-.46a.47.47,0,0,0-.47-.22c-.23,0-.2.32-.54.6s-.26.1-.45.27a1.31,1.31,0,0,0-.38.59,1.59,1.59,0,0,0,.05,1A3.16,3.16,0,0,0,20.65,30c.48.42.67.43.75.42.44-.05.68-.7.73-.84a3.13,3.13,0,0,0,.07-1.27c-.05-.92-.21-1.1-.28-1.16S21.54,27.06,21.44,26.85Z"/><path class="cls-1" d="M33.1,30.86c.25.28.44.28,1.31,1,.38.29.64.52.75.61a11.13,11.13,0,0,0,2.89,1.84c.68.27,1.21.48,1.5.23s.14-1.15-.09-1.64a7.75,7.75,0,0,0-2.38-2.37,4.69,4.69,0,0,1-.72-.68c-.49-.59-.49-.85-.77-1.14a2,2,0,0,0-2.66-.14A1.9,1.9,0,0,0,33.1,30.86Z"/><path class="cls-1" d="M37.86,37c.45,2.69.6,2.07.9,4.07.17,1.07.26,2.12.78,2.26a.68.68,0,0,0,.5-.1c.93-.56.28-2.38.43-6.14A6.28,6.28,0,0,0,40.11,34c-.11-.25-.65-1.43-1.3-1.39-.49,0-.8.74-.92,1C37.55,34.36,37.54,35.1,37.86,37Z"/><path class="cls-1" d="M38.67,45.33c0,.2-.1.28-.05.47a.49.49,0,0,0,.38.35c.24,0,.29-.25.7-.4.24-.1.28,0,.51-.13a1.34,1.34,0,0,0,.55-.45,1.51,1.51,0,0,0,.24-.93,3.17,3.17,0,0,0-.6-1.71c-.33-.55-.5-.61-.59-.63-.43-.08-.86.46-1,.57a3.16,3.16,0,0,0-.45,1.19c-.23.9-.14,1.11-.09,1.19S38.64,45.1,38.67,45.33Z"/><rect class="cls-1" x="15.7" y="6.56" width="3.17" height="70.07"/><rect class="cls-1" x="19.29" y="46.83" width="2.51" height="1.16"/><rect class="cls-1" x="12.76" y="46.83" width="2.51" height="1.16"/></svg>