<svg id="Layer_1" data-name="Layer 1" xmlns="http://www.w3.org/2000/svg" viewBox="0 0 61.2 79.2"><defs><style>.cls-1{fill:#fff;}</style></defs><title>TimelineFigures</title><path class="cls-1" d="M23.32,24.18c.11.14.32,0,.66.17a1.1,1.1,0,0,1,.29.25,1.05,1.05,0,0,1,.16.4c.1.27.23.29.47.6s.21.53.39.68c.39.34,1.21,0,1.37-.08.58-.26,1-.79,1.86-1.84a3.87,3.87,0,0,0,1-1.69,2.56,2.56,0,0,0,0-1c0-.09.09-.22.17-.37.2-.37.32-.42.3-.57s-.4-.28-.41-.53.13-.17.14-.37-.08-.21-.16-.44,0-.4-.08-.61-.31-.17-.47-.43,0-.39-.19-.58-.26-.1-.37-.26,0-.43-.1-.51-.27.13-.56.1c-.09,0-.12,0-.57-.34s-.41-.28-.47-.29c-.29-.08-.38.11-.7.06s-.38-.24-.58-.2-.21.35-.54.55-.33,0-.61.17-.22.28-.48.45-.63.1-.76.31,0,.24,0,.52a2,2,0,0,1-.39.59c-.29.35-.35.36-.38.49s.12.33.08.6-.25.3-.26.54a.74.74,0,0,0,.38.57c.22.14.31,0,.42.17s0,.5.08,1c.07.28.19.32.29.48a.59.59,0,0,1,.08.2,1.1,1.1,0,0,1,0,.51C23.3,24.1,23.28,24.12,23.32,24.18Z"/><path class="cls-1" d="M30.37,24.34c.42.49-.23,2-1.3,2.71-.14.09-.59.37-.85.22s-.09-.31-.34-.56-.4-.17-.56-.42-.09-.23-.21-.36-.27-.13-.31-.21.69-.79,1.38-1.64.95-1.58,1.17-1.51,0,.14.23.66A1.87,1.87,0,0,0,30,24C30.16,24.25,30.26,24.21,30.37,24.34Z"/><path class="cls-1" d="M27.62,31.49A6.73,6.73,0,0,0,28.31,33c1.64,2.8,1.41,3.91,2.52,4.66,1.6,1.08,4.71.53,5.71-1.1.71-1.15-.3-1.73-1.21-7.05a6.53,6.53,0,0,0-1-3.18,5.66,5.66,0,0,0-3.42-2,2.23,2.23,0,0,0-1.64,0c-.51.29-.51.76-1.06,2.44-.6,1.83-.84,2-.86,2.88A6.06,6.06,0,0,0,27.62,31.49Z"/><path class="cls-1" d="M34.48,29.16c1.87,3.81,1.45,5.95,2.63,6.21s2.9-1.65,3.34-3.52a5.62,5.62,0,0,0-1.05-4.58c-.85-1-1.93-1.42-1.9-2.33,0-.67.62-1,.49-1.47-.18-.72-1.49-.95-1.76-1-1-.16-1.53.46-2,.11s-.4-.93-.74-1-.49.34-.55.43a1.62,1.62,0,0,0,0,1.57c.09,0-.07-1.34.15-1.38s.39.34.37.71c0,.61-.89.73-1.22,1.25C31.56,25.17,33.35,26.87,34.48,29.16Z"/><path class="cls-1" d="M27.5,29c-.16.34-.09.52-.37,1.58-.12.46-.23.8-.27.93a11.34,11.34,0,0,0-.57,3.38c0,.74,0,1.31.37,1.47s1.12-.32,1.48-.72a7.67,7.67,0,0,0,1.25-3.12,5.1,5.1,0,0,1,.35-.92c.34-.69.59-.79.75-1.16a2,2,0,0,0-.92-2.5A1.87,1.87,0,0,0,27.5,29Z"/><path class="cls-1" d="M24.47,33.22c-2.68-.46-2.15-.12-4.14-.48-1.07-.2-2.08-.45-2.39,0a.65.65,0,0,0-.06.51c.22,1.07,2.15,1,5.66,2.41a6.23,6.23,0,0,0,3.09.69c.27,0,1.57-.14,1.74-.78.12-.47-.44-1-.65-1.19C27.11,33.8,26.41,33.55,24.47,33.22Z"/><path class="cls-1" d="M16.38,31.28c-.2,0-.24-.19-.43-.2a.47.47,0,0,0-.46.24c-.1.21.14.35.16.79,0,.26-.07.27-.06.52a1.41,1.41,0,0,0,.25.67,1.58,1.58,0,0,0,.8.53,3.13,3.13,0,0,0,1.82,0c.63-.13.74-.27.78-.35.22-.38-.15-1-.23-1.09a3,3,0,0,0-1-.81c-.77-.51-1-.49-1.1-.47S16.61,31.32,16.38,31.28Z"/><path class="cls-1" d="M36.12,33.75a3.88,3.88,0,0,0-3.23-1A3.62,3.62,0,0,0,30.24,34c-.4.58-.26.93-.21,3.59,0,2.43-.05,3,.4,4a3.49,3.49,0,0,0,4.23,2A3.34,3.34,0,0,0,37,41.48c.17-.68-.15-.81-.22-2.25-.07-1.25.16-1.37.12-2.51S36.79,34.5,36.12,33.75Z"/><path class="cls-1" d="M27.79,44.49c-.42.89-1.39,2.95-2.5,5.79-1.8,4.61-1.71,5.45-1.29,5.94a2.42,2.42,0,0,0,2.36.44c1.35-.41,1.53-1.71,4.05-5.89a11.71,11.71,0,0,1,1.82-2.59c1.31-1.3,1.89-1.08,2.76-2.24a5.4,5.4,0,0,0,1-3.78,4.69,4.69,0,0,0-.38-1.29c-.29-.69-1.06-2.51-2.68-2.78a2.67,2.67,0,0,0-2.16.6,3.16,3.16,0,0,0-.89,1.59C29.6,41.45,29.59,40.73,27.79,44.49Z"/><path class="cls-1" d="M31,46.42c.17,1,.59,3.21,1.34,6.16,1.23,4.79,1.79,5.43,2.42,5.57a2.4,2.4,0,0,0,2.17-1c.87-1.12.25-2.28-.15-7.15a12.61,12.61,0,0,1,0-3.17c.31-1.82.92-2,.94-3.42a5.36,5.36,0,0,0-1.35-3.68,4.73,4.73,0,0,0-1.06-.84c-.63-.38-2.33-1.41-3.8-.69a2.72,2.72,0,0,0-1.41,1.75,3.16,3.16,0,0,0,.22,1.81C30.67,42.89,30.24,42.32,31,46.42Z"/><path class="cls-1" d="M40.68,60.72c-1.21-3-1.59-3.57-2.25-4.17-.32-.29-2-1.84-3.7-1.33-.17.05-1,.31-1.21,1-.27.88.86,1.8,2.09,3.14,1.68,1.84.89,1.53,3.54,4.94C42,67.9,42,68.44,41.89,68.79a5,5,0,0,1-1.21,1.79c-.56.57-1,.83-1,1.06s.79.26,1.18.22a3.7,3.7,0,0,0,1.58-.67c.19-.12.43-.3.9-.67C44.43,69.69,45,69.27,45,69c.06-.54-.66-1-1.06-1.31C42.73,66.78,42.83,66,40.68,60.72Z"/><path class="cls-1" d="M26.84,61.94c1-3.06,1.06-3.76.93-4.65-.05-.42-.37-2.71-2-3.38a1.79,1.79,0,0,0-1.54,0c-.77.5-.49,1.93-.4,3.75.13,2.48-.29,1.75-.42,6.06-.14,4.64-.5,5-.79,5.25a5.11,5.11,0,0,1-2.08.6c-.79.08-1.33,0-1.42.19s.44.71.77.92a3.67,3.67,0,0,0,1.64.5c.22,0,.53,0,1.12.06,1.35,0,2,0,2.2-.12.39-.38.14-1.2,0-1.69C24.56,67.92,25.13,67.37,26.84,61.94Z"/><path class="cls-1" d="M31.11,24.72c.09-.36.26-.45.72-1.46.2-.43.32-.76.38-.89a11.16,11.16,0,0,1,1.7-3c.47-.55.85-1,1.21-.9s.67,1,.69,1.49a7.53,7.53,0,0,1-1,3.21,4.89,4.89,0,0,0-.31.94c-.17.75,0,1-.16,1.36a2,2,0,0,1-2.29,1.37A1.9,1.9,0,0,1,31.11,24.72Z"/><path class="cls-1" d="M32.26,16.85c-1-2.52-.59-2.08-1.38-3.94-.43-1-.91-1.93-.54-2.32a.68.68,0,0,1,.48-.18c1.09,0,1.5,1.87,3.6,5a6.3,6.3,0,0,1,1.37,2.86c0,.27.2,1.56-.38,1.87-.43.23-1.07-.21-1.31-.37C33.41,19.29,33,18.66,32.26,16.85Z"/><path class="cls-1" d="M28.57,9.38c-.08-.18-.23-.18-.28-.37a.48.48,0,0,1,.13-.5c.19-.14.38.06.81,0,.25,0,.24-.12.49-.16a1.42,1.42,0,0,1,.71.09,1.6,1.6,0,0,1,.69.67,3.12,3.12,0,0,1,.4,1.77c0,.64-.11.78-.17.84-.32.3-1,.07-1.11,0a3.25,3.25,0,0,1-1-.77c-.67-.64-.7-.87-.71-1S28.67,9.6,28.57,9.38Z"/></svg>