<svg id="Layer_1" data-name="Layer 1" xmlns="http://www.w3.org/2000/svg" xmlns:xlink="http://www.w3.org/1999/xlink" viewBox="0 0 61.2 79.2"><defs><style>.cls-1{fill:#fff;}.cls-2{opacity:0.32;fill:url(#linear-gradient);}</style><linearGradient id="linear-gradient" x1="68.5" y1="83.12" x2="79.39" y2="83.12" gradientTransform="translate(-82.67 -13.18) rotate(-25.96)" gradientUnits="userSpaceOnUse"><stop offset="0" stop-color="#fff"/><stop offset="0.82" stop-color="#fff" stop-opacity="0"/></linearGradient></defs><title>TimelineFigures</title><path class="cls-1" d="M26.91,23.71c.11.14.31,0,.65.18a.78.78,0,0,1,.29.24,1.27,1.27,0,0,1,.17.4c.09.27.23.29.46.6s.22.53.39.68c.39.34,1.22,0,1.38-.08.58-.25,1-.79,1.85-1.84a3.87,3.87,0,0,0,1-1.69,3.08,3.08,0,0,0,0-.95,2.66,2.66,0,0,1,.17-.37c.19-.37.31-.42.3-.56s-.41-.29-.42-.54.13-.17.14-.37-.08-.21-.15-.44,0-.4-.08-.61-.32-.17-.47-.43,0-.38-.19-.58-.27-.1-.37-.26,0-.43-.1-.51-.28.13-.56.1c-.09,0-.13,0-.58-.34s-.41-.28-.47-.29c-.29-.08-.37.11-.7.06s-.37-.24-.57-.2-.21.35-.55.55-.33,0-.61.18-.21.27-.48.44-.62.1-.75.31,0,.25,0,.52a1.85,1.85,0,0,1-.4.59c-.29.35-.34.37-.37.5s.12.32.07.59-.25.3-.25.54a.73.73,0,0,0,.37.57c.22.14.32.06.43.17s0,.51.07,1c.07.29.2.32.3.48a2.05,2.05,0,0,1,.08.2A1.25,1.25,0,0,1,27,23C26.89,23.63,26.87,23.66,26.91,23.71Z"/><path class="cls-1" d="M34,23.87c.42.49-.23,2-1.29,2.71-.15.09-.59.38-.86.22s-.09-.31-.33-.56-.4-.17-.57-.42-.08-.23-.21-.36-.26-.13-.31-.21c-.13-.23.69-.79,1.39-1.64s.95-1.58,1.16-1.51.06.14.23.67a2,2,0,0,0,.39.8C33.74,23.78,33.84,23.75,34,23.87Z"/><path class="cls-1" d="M31.21,31a6.55,6.55,0,0,0,.68,1.55c1.65,2.79,1.41,3.9,2.53,4.65,1.6,1.08,4.7.53,5.71-1.1.7-1.15-.3-1.73-1.22-7a6.46,6.46,0,0,0-1-3.18,5.56,5.56,0,0,0-3.41-2,2.23,2.23,0,0,0-1.64,0c-.52.29-.52.76-1.07,2.44-.6,1.84-.84,2-.85,2.88A5.73,5.73,0,0,0,31.21,31Z"/><path class="cls-1" d="M39.72,33.28a3.93,3.93,0,0,0-3.22-1,3.64,3.64,0,0,0-2.66,1.27c-.4.57-.26.92-.2,3.58,0,2.43-.06,3,.4,4a3.59,3.59,0,0,0,1.28,1.57,3.7,3.7,0,0,0,2.94.44A3.3,3.3,0,0,0,40.55,41c.17-.69-.15-.81-.22-2.26-.06-1.25.16-1.36.13-2.51S40.4,34,39.72,33.28Z"/><path class="cls-1" d="M32.68,26.29c-.34.18-.39.37-1.25,1.05-.37.3-.66.5-.77.58a11.28,11.28,0,0,0-2.48,2.37c-.43.6-.75,1.07-.58,1.4s1.09.42,1.61.31a7.61,7.61,0,0,0,2.87-1.75,4.59,4.59,0,0,1,.84-.53c.68-.35.94-.28,1.28-.48A2,2,0,0,0,35,26.69,1.89,1.89,0,0,0,32.68,26.29Z"/><path class="cls-1" d="M25.64,29.58c-2.72.11-2.13.33-4.15.39-1.09,0-2.14,0-2.34.49a.67.67,0,0,0,0,.51c.44,1,2.33.57,6,1.18a6.42,6.42,0,0,0,3.17,0c.26-.08,1.5-.47,1.54-1.13,0-.49-.64-.89-.88-1C28.34,29.59,27.6,29.5,25.64,29.58Z"/><path class="cls-1" d="M19.08,33.59c-.22.13,0,.56-.18,1.17-.09.29-.27.64-.38.62s.13-1.46-.52-2a2.07,2.07,0,0,1-.35-.39c-.36-.37-.46-.38-.51-.52s.24-.63.65-1.06a4,4,0,0,1,1.48-1.06c.58-.27.75-.22.83-.18.41.17.45.86.46,1a3.06,3.06,0,0,1-.31,1.23c-.29.78-.48,1-.57,1l0,0A4.44,4.44,0,0,1,19.08,33.59Z"/><path class="cls-1" d="M31.48,30.58c-.23.3-.2.49-.72,1.46-.22.42-.4.72-.48.84A11.33,11.33,0,0,0,29,36c-.15.72-.27,1.28,0,1.52s1.17-.05,1.61-.36a7.83,7.83,0,0,0,1.93-2.75,4.3,4.3,0,0,1,.56-.83c.48-.59.75-.63,1-.95A2,2,0,0,0,33.75,30,1.9,1.9,0,0,0,31.48,30.58Z"/><path class="cls-1" d="M26.1,35.58c-2.7.31-2.1.49-4.11.69-1.08.11-2.13.15-2.3.66a.73.73,0,0,0,.08.51c.51,1,2.36.4,6.11.74a6.22,6.22,0,0,0,3.17-.2c.25-.09,1.46-.57,1.44-1.23,0-.49-.69-.84-.95-1C28.8,35.4,28.05,35.36,26.1,35.58Z"/><path class="cls-1" d="M17.32,35.89a3.26,3.26,0,0,1-.93-.53c-.14-.12-.3-.28-.5-.26s-.3.1-.32.22.11.22.41.48l.64.59c.45.42.5.53.74.62a1.69,1.69,0,0,0,.58.05,4.33,4.33,0,0,1,1.4.38c.75.29.85.47,1.15.39a.94.94,0,0,0,.64-.51.08.08,0,0,0,0,0c.06-.24-.22-.42-1-1.1-.31-.26-.43-.36-.64-.39a3,3,0,0,0-.53,0,4.07,4.07,0,0,1-.73-.06A2.47,2.47,0,0,0,17.32,35.89Z"/><path class="cls-1" d="M16.93,35.27l6.88-.87-.24.72a15.51,15.51,0,0,1-4.49.83,14.75,14.75,0,0,1-2.49-.13,37.69,37.69,0,0,1-1.49-4,37.26,37.26,0,0,1-1.23-5.46l.7-1.69Q15.76,30,16.93,35.27Z"/><path class="cls-2" d="M26.06,33.59l-9.17,1.22-2-8.88,7.39-5Z"/><path class="cls-1" d="M33.86,45c0,1,0,3.27.3,6.3.41,4.93.86,5.65,1.45,5.9a2.38,2.38,0,0,0,2.32-.64c1-1,.62-2.21,1-7.07a12.09,12.09,0,0,1,.5-3.13c.6-1.74,1.23-1.79,1.5-3.22a5.4,5.4,0,0,0-.73-3.86,4.82,4.82,0,0,0-.91-1c-.56-.49-2-1.79-3.63-1.32A2.66,2.66,0,0,0,34,38.49a3.15,3.15,0,0,0-.1,1.82C34.15,41.51,33.82,40.87,33.86,45Z"/><path class="cls-1" d="M40.23,61.86c-.22-3.2-.39-3.89-.83-4.67-.21-.37-1.34-2.38-3.09-2.42-.18,0-1.07,0-1.45.53-.53.75.25,2,1,3.64,1,2.26.37,1.73,1.83,5.79,1.56,4.37,1.37,4.87,1.17,5.17a4.75,4.75,0,0,1-1.71,1.32c-.7.37-1.25.46-1.25.71s.67.49,1.05.57a3.63,3.63,0,0,0,1.72-.14A9.3,9.3,0,0,0,39.73,72c1.27-.45,1.9-.69,2-.91.23-.5-.31-1.16-.59-1.58C40.29,68.26,40.63,67.54,40.23,61.86Z"/><path class="cls-1" d="M38.36,61.12c.55-3.15.55-3.86.31-4.73-.11-.41-.73-2.63-2.42-3.09a1.8,1.8,0,0,0-1.54.17c-.69.6-.22,2,.11,3.77.45,2.44-.06,1.77.38,6.06.48,4.62.17,5.06-.09,5.31a5,5,0,0,1-2,.87c-.77.18-1.33.14-1.39.38s.54.64.89.81a3.65,3.65,0,0,0,1.69.28,10.52,10.52,0,0,0,1.12-.1c1.34-.14,2-.21,2.17-.4.34-.43,0-1.21-.2-1.68C36.89,67.35,37.39,66.73,38.36,61.12Z"/></svg>