<svg id="Layer_1" data-name="Layer 1" xmlns="http://www.w3.org/2000/svg" viewBox="0 0 79.2 61.2"><defs><style>.cls-1{fill:#fff;}</style></defs><title>TimelineFigures</title><path class="cls-1" d="M60.81,32c-.1.15.1.3,0,.68a.8.8,0,0,1-.14.35,1.07,1.07,0,0,1-.34.27c-.23.18-.21.31-.44.63s-.45.36-.54.57c-.21.47.37,1.15.49,1.29A5.59,5.59,0,0,0,62.16,37a3.78,3.78,0,0,0,1.9.44,2.79,2.79,0,0,0,.91-.25,2.77,2.77,0,0,1,.41.05c.4.08.49.18.62.12s.16-.47.39-.55.21.07.4,0,.18-.14.38-.28.39-.1.56-.26.07-.35.27-.57.36-.14.5-.35,0-.29.14-.43.41-.11.46-.25-.21-.22-.26-.5c0-.09,0-.14.16-.65a1.92,1.92,0,0,0,.14-.54c0-.3-.22-.32-.27-.65s.12-.43,0-.61-.4-.1-.69-.36-.12-.31-.34-.53-.33-.13-.57-.33-.28-.57-.52-.63-.22.11-.51.12a1.74,1.74,0,0,1-.67-.2c-.43-.18-.45-.23-.59-.21s-.27.2-.55.24-.36-.15-.58-.09a.77.77,0,0,0-.44.53c-.07.25,0,.31,0,.46s-.49.1-.91.35c-.26.15-.25.28-.38.42a.87.87,0,0,1-.16.14,1.43,1.43,0,0,1-.49.17C60.88,31.91,60.85,31.9,60.81,32Z"/><path class="cls-1" d="M62.71,38.74c-.34.55-2,.37-3-.45-.13-.11-.53-.45-.46-.75s.27-.18.44-.49,0-.42.23-.66.19-.14.28-.3,0-.3.11-.36,1,.43,2,.85,1.79.44,1.79.67-.11.09-.57.41a2.12,2.12,0,0,0-.66.61C62.74,38.51,62.8,38.6,62.71,38.74Z"/><path class="cls-1" d="M55.08,38.2a6.58,6.58,0,0,0-1.28,1.11c-2.19,2.39-3.33,2.49-3.72,3.77-.56,1.85.87,4.66,2.73,5.14,1.3.34,1.57-.79,6.38-3.22A6.55,6.55,0,0,0,62,43.13a5.6,5.6,0,0,0,.91-3.86,2.2,2.2,0,0,0-.51-1.56c-.43-.4-.88-.26-2.64-.3-1.93,0-2.16-.22-3,0A6.09,6.09,0,0,0,55.08,38.2Z"/><path class="cls-1" d="M53.69,47.9a3.89,3.89,0,0,0,.49-3.33,3.58,3.58,0,0,0-1.64-2.44c-.62-.31-.95-.12-3.57.32-2.4.4-3,.39-3.9,1a3.66,3.66,0,0,0-1.36,1.51,3.73,3.73,0,0,0,0,3,3.3,3.3,0,0,0,2.46,2c.71.07.78-.27,2.2-.55,1.22-.25,1.37,0,2.5-.25S53.05,48.68,53.69,47.9Z"/><path class="cls-1" d="M44.41,41.25c-.78-.6-2.6-2-5.13-3.67-4.13-2.73-5-2.82-5.53-2.51a2.4,2.4,0,0,0-.94,2.21c.12,1.41,1.35,1.86,4.91,5.2a12.39,12.39,0,0,1,2.15,2.33c1,1.55.64,2.08,1.59,3.17a5.35,5.35,0,0,0,3.48,1.82,4.56,4.56,0,0,0,1.34-.09c.73-.14,2.68-.51,3.29-2a2.7,2.7,0,0,0-.13-2.24,3.08,3.08,0,0,0-1.38-1.2C47,43.66,47.7,43.8,44.41,41.25Z"/><path class="cls-1" d="M30.59,42.9c2.65-1.8,3.16-2.29,3.61-3.07.22-.36,1.38-2.36.53-3.89-.08-.16-.51-.93-1.18-1-.92-.08-1.58,1.22-2.64,2.7-1.44,2-1.31,1.19-4.08,4.49-3,3.56-3.52,3.64-3.88,3.63A5,5,0,0,1,21,45c-.67-.43-1-.86-1.24-.73s-.09.83,0,1.19a3.68,3.68,0,0,0,1,1.42c.15.16.39.35.84.73,1,.87,1.56,1.3,1.8,1.27.55-.05.85-.85,1.07-1.3C25.09,46.18,25.88,46.11,30.59,42.9Z"/><path class="cls-1" d="M60.85,41.86c0,.37.19.49.5,1.54.13.46.21.8.24.94a11.22,11.22,0,0,0,1.26,3.19c.39.62.7,1.1,1.07,1.07s.8-.85.9-1.38a7.83,7.83,0,0,0-.53-3.32,5.13,5.13,0,0,1-.18-1c-.06-.77.1-1,0-1.37-.11-.81-1.09-1.9-2.07-1.68A1.88,1.88,0,0,0,60.85,41.86Z"/><path class="cls-1" d="M59.84,47.79c-2.52,1-1.9,1-3.78,1.77-1,.39-2,.71-2,1.25a.66.66,0,0,0,.21.46c.75.79,2.38-.24,6.08-.92a6.28,6.28,0,0,0,3-1c.22-.16,1.25-1,1.06-1.57s-.89-.63-1.17-.68C62.39,46.89,61.66,47.05,59.84,47.79Z"/><path class="cls-1" d="M51.93,50.39c-.19.08-.29,0-.47.06a.49.49,0,0,0-.26.45c0,.23.3.22.55.59.14.21.08.26.23.47a1.29,1.29,0,0,0,.56.43,1.53,1.53,0,0,0,1,0,3.17,3.17,0,0,0,1.54-1c.46-.44.48-.62.48-.7,0-.45-.63-.75-.76-.81a3,3,0,0,0-1.26-.18c-.93,0-1.11.11-1.18.17S52.15,50.31,51.93,50.39Z"/><path class="cls-1" d="M58.33,36.54a15.18,15.18,0,0,0-1.56-.44c-.46-.15-.78-.27-.92-.32a11.17,11.17,0,0,0-3.34-.73c-.74,0-1.31,0-1.49.3s.26,1.14.65,1.51a7.49,7.49,0,0,0,3,1.4,4.6,4.6,0,0,1,.91.4c.67.37.76.62,1.12.8a2,2,0,0,0,2.54-.8A1.89,1.89,0,0,0,58.33,36.54Z"/><path class="cls-1" d="M55.47,34.82c2.25-1.53,1.64-1.41,3.33-2.52.9-.59,1.82-1.11,1.73-1.64a.64.64,0,0,0-.31-.41c-.9-.62-2.28.73-5.75,2.16a6.25,6.25,0,0,0-2.72,1.64c-.18.2-1,1.19-.72,1.76s1,.42,1.29.42C53.16,36.22,53.84,35.92,55.47,34.82Z"/><path class="cls-1" d="M62.66,30.63c.18-.11.3,0,.45-.15a.5.5,0,0,0,.17-.5c-.08-.22-.35-.15-.66-.46s-.14-.24-.32-.41a1.37,1.37,0,0,0-.64-.31,1.54,1.54,0,0,0-.95.16,3.07,3.07,0,0,0-1.3,1.27c-.37.53-.35.7-.33.79.1.43.77.59.91.63a3.14,3.14,0,0,0,1.27-.09c.91-.16,1.07-.34,1.12-.41S62.47,30.76,62.66,30.63Z"/><path class="cls-1" d="M42.44,42.63c-1,0-3.27,0-6.3.3-4.93.41-5.65.86-5.9,1.45a2.38,2.38,0,0,0,.64,2.31c1,1,2.21.63,7.07,1.05a11.64,11.64,0,0,1,3.13.5c1.74.6,1.8,1.22,3.22,1.49A5.38,5.38,0,0,0,48.16,49a5.57,5.57,0,0,0,1-.91c.48-.56,1.78-2.06,1.31-3.63A2.7,2.7,0,0,0,49,42.79a3.14,3.14,0,0,0-1.82-.09C46,42.91,46.6,42.59,42.44,42.63Z"/><path class="cls-1" d="M25.07,47.82c3.18.4,3.88.36,4.73.08.41-.13,2.6-.86,3-2.57a1.83,1.83,0,0,0-.24-1.52c-.64-.67-2-.13-3.77.28-2.42.57-1.76,0-6,.68-4.59.7-5,.41-5.3.16a4.78,4.78,0,0,1-1-1.93c-.22-.76-.21-1.32-.45-1.37s-.62.57-.76.92a3.68,3.68,0,0,0-.2,1.71,9.67,9.67,0,0,0,.15,1.12c.2,1.33.31,2,.51,2.14.44.32,1.2-.09,1.66-.28C18.77,46.65,19.42,47.12,25.07,47.82Z"/></svg>