<svg id="Layer_1" data-name="Layer 1" xmlns="http://www.w3.org/2000/svg" viewBox="0 0 61.2 79.2"><defs><style>.cls-1{fill:#fff;}</style></defs><title>TimelineFigures</title><path class="cls-1" d="M24.72,21.85c.11.14.31,0,.65.18a.87.87,0,0,1,.3.24,1.24,1.24,0,0,1,.16.4c.1.27.23.29.47.61s.21.53.38.68c.4.33,1.22,0,1.38-.09.58-.25,1-.78,1.85-1.84a3.76,3.76,0,0,0,1-1.69,2.74,2.74,0,0,0,0-.94c0-.09.09-.23.17-.38.19-.37.32-.42.3-.56s-.41-.29-.42-.54.13-.17.15-.37-.09-.21-.16-.44,0-.4-.08-.61-.31-.17-.47-.43,0-.38-.19-.57-.27-.11-.37-.27,0-.42-.1-.51-.28.13-.56.1c-.09,0-.13,0-.58-.34s-.41-.28-.46-.29c-.29-.07-.38.11-.71.07s-.37-.25-.57-.21-.21.36-.54.55-.34,0-.61.18-.22.27-.48.44-.63.1-.76.31,0,.25,0,.53a2,2,0,0,1-.4.58c-.28.36-.34.37-.37.5s.12.32.08.6-.25.29-.26.53a.74.74,0,0,0,.38.57c.22.14.31.06.42.17s0,.51.07,1c.07.29.2.32.3.49a.48.48,0,0,1,.08.19,1.3,1.3,0,0,1,0,.52C24.7,21.77,24.68,21.8,24.72,21.85Z"/><path class="cls-1" d="M31.77,22c.42.49-.23,2-1.3,2.7-.14.09-.59.38-.85.22s-.1-.31-.34-.56-.4-.16-.57-.42-.08-.23-.21-.36-.26-.13-.3-.21c-.13-.23.69-.79,1.38-1.63s1-1.58,1.17-1.52.05.14.23.67a2.1,2.1,0,0,0,.38.81C31.55,21.92,31.66,21.89,31.77,22Z"/><path class="cls-1" d="M29,29.16a6.44,6.44,0,0,0,.69,1.55c1.64,2.79,1.41,3.91,2.52,4.66,1.6,1.07,4.7.52,5.71-1.11.71-1.15-.3-1.73-1.21-7a6.57,6.57,0,0,0-1-3.18,5.57,5.57,0,0,0-3.42-2,2.23,2.23,0,0,0-1.64,0c-.51.3-.51.77-1.06,2.44-.61,1.84-.85,2-.86,2.89A6,6,0,0,0,29,29.16Z"/><path class="cls-1" d="M37.54,31.43a3.94,3.94,0,0,0-3.23-1,3.65,3.65,0,0,0-2.65,1.27c-.4.57-.26.92-.21,3.59.05,2.42-.05,3,.4,4a3.6,3.6,0,0,0,1.29,1.56,3.68,3.68,0,0,0,2.93.44,3.27,3.27,0,0,0,2.29-2.14c.18-.69-.14-.81-.22-2.26-.06-1.24.17-1.36.13-2.51S38.21,32.17,37.54,31.43Z"/><path class="cls-1" d="M30.49,24.44a15.4,15.4,0,0,0-1.24,1c-.38.3-.66.5-.78.59A11,11,0,0,0,26,28.44c-.42.59-.75,1.06-.58,1.39s1.09.42,1.62.31a7.77,7.77,0,0,0,2.87-1.75,5,5,0,0,1,.83-.53c.69-.35.95-.28,1.29-.48a2,2,0,0,0,.76-2.55A1.87,1.87,0,0,0,30.49,24.44Z"/><path class="cls-1" d="M23.61,27.14c-2.66-.56-2.15-.2-4.12-.64-1.06-.24-2.06-.53-2.39-.1a.73.73,0,0,0-.08.51C17.2,28,19.13,28,22.58,29.53a6.21,6.21,0,0,0,3.07.82c.27,0,1.57-.09,1.76-.71.15-.47-.4-1-.59-1.22C26.22,27.82,25.53,27.55,23.61,27.14Z"/><path class="cls-1" d="M16.27,29.42c-.24.07-.14.54-.46,1.09-.16.26-.42.55-.53.5s.49-1.38,0-2.1a2.42,2.42,0,0,1-.24-.46c-.26-.45-.35-.49-.37-.63,0-.31.39-.56.9-.87a4,4,0,0,1,1.69-.67c.63-.11.78,0,.85,0,.35.27.22,1,.2,1.1a3.21,3.21,0,0,1-.61,1.11c-.47.69-.7.81-.81.85h0A3.38,3.38,0,0,1,16.27,29.42Z"/><path class="cls-1" d="M29.3,28.72a14.52,14.52,0,0,0-.72,1.46c-.23.42-.41.72-.48.84a11.18,11.18,0,0,0-1.33,3.17c-.15.71-.26,1.27,0,1.51s1.16-.05,1.6-.36a7.62,7.62,0,0,0,1.93-2.75,5.23,5.23,0,0,1,.56-.82c.49-.59.75-.64,1-.95a2,2,0,0,0-.31-2.65A1.88,1.88,0,0,0,29.3,28.72Z"/><path class="cls-1" d="M23.91,33.72c-2.7.31-2.1.49-4.11.69-1.08.11-2.13.15-2.29.66a.63.63,0,0,0,.08.51c.51,1,2.35.4,6.1.74a6.32,6.32,0,0,0,3.17-.19c.25-.1,1.46-.58,1.45-1.24,0-.49-.7-.84-.95-1C26.61,33.55,25.86,33.5,23.91,33.72Z"/><path class="cls-1" d="M15.11,34.84a3.31,3.31,0,0,1-1-.27.78.78,0,0,0-.55-.12c-.13,0-.27.18-.26.3s.17.19.53.36l.77.39c.55.29.63.39.88.41A1.46,1.46,0,0,0,16,35.8a4.45,4.45,0,0,1,1.46,0c.79.08.94.22,1.2.07a1,1,0,0,0,.49-.67v0c0-.25-.32-.35-1.29-.79a1.38,1.38,0,0,0-.73-.21,4.79,4.79,0,0,0-.49.18,4.53,4.53,0,0,1-.72.14A2.61,2.61,0,0,0,15.11,34.84Z"/><path class="cls-1" d="M29.21,42.17c-.43.88-1.39,2.95-2.5,5.79-1.8,4.61-1.71,5.45-1.29,5.93a2.38,2.38,0,0,0,2.35.45c1.36-.41,1.54-1.71,4.05-5.9a12.17,12.17,0,0,1,1.83-2.59c1.3-1.3,1.89-1.07,2.76-2.23a5.38,5.38,0,0,0,1-3.78,4.84,4.84,0,0,0-.37-1.3C36.79,37.86,36,36,34.4,35.76a2.74,2.74,0,0,0-2.17.6,3.27,3.27,0,0,0-.88,1.6C31,39.13,31,38.41,29.21,42.17Z"/><path class="cls-1" d="M32.39,44.1c.18,1,.6,3.2,1.35,6.16,1.22,4.79,1.79,5.42,2.41,5.57a2.41,2.41,0,0,0,2.18-1c.86-1.12.25-2.29-.15-7.15a12.11,12.11,0,0,1,0-3.17c.3-1.82.91-2,.94-3.43a5.34,5.34,0,0,0-1.36-3.68,4.93,4.93,0,0,0-1.06-.83c-.63-.38-2.32-1.42-3.79-.69a2.64,2.64,0,0,0-1.41,1.74,3.2,3.2,0,0,0,.21,1.82C32.09,40.57,31.66,40,32.39,44.1Z"/><path class="cls-1" d="M42.09,58.4c-1.21-3-1.58-3.57-2.25-4.17-.31-.29-2-1.85-3.69-1.34-.18.06-1,.31-1.21,1-.27.88.86,1.8,2.09,3.14,1.68,1.83.89,1.53,3.54,4.93,2.85,3.66,2.83,4.2,2.74,4.55a4.89,4.89,0,0,1-1.22,1.79c-.55.56-1,.82-1,1.06s.8.26,1.18.21a3.68,3.68,0,0,0,1.59-.66c.19-.12.43-.31.9-.68,1.06-.83,1.59-1.25,1.61-1.49.06-.55-.66-1-1-1.32C44.15,64.46,44.24,63.67,42.09,58.4Z"/><path class="cls-1" d="M28.26,59.62c1-3.06,1-3.76.93-4.65-.06-.42-.38-2.71-2-3.39a1.78,1.78,0,0,0-1.55,0c-.76.5-.48,1.93-.39,3.75.12,2.48-.29,1.74-.42,6.06-.14,4.63-.51,5-.8,5.24a4.74,4.74,0,0,1-2.07.6c-.79.08-1.34,0-1.43.2s.45.71.77.92a3.74,3.74,0,0,0,1.65.5,10.63,10.63,0,0,0,1.12.05c1.34,0,2,.06,2.2-.11.39-.38.13-1.2,0-1.69C26,65.59,26.55,65.05,28.26,59.62Z"/><path class="cls-1" d="M11.48,32.87l7.24.25a3.14,3.14,0,0,1-.57.65,3.2,3.2,0,0,1-2.26.62c-1.89,0-2.84.06-3.64-.62A3.38,3.38,0,0,1,11.48,32.87Z"/><path class="cls-1" d="M12.23,32.55c.15.32.59.43,2.89.45s2.89-.08,2.94-.3c0-.06-.06-.16-.21-.36a2.22,2.22,0,0,0-.7-.73c-.44-.24-.6,0-1.16-.22s-.63-.57-1.07-.61-.6.41-1.39.59c-.53.11-.74-.08-1,.12A1,1,0,0,0,12.23,32.55Z"/><path class="cls-1" d="M35.89,26.83c1.88,3.82,1.45,6,2.64,6.21s2.9-1.65,3.33-3.52a5.53,5.53,0,0,0-1-4.57c-.84-1-1.93-1.42-1.89-2.34,0-.66.62-.94.49-1.47-.19-.71-1.49-.95-1.76-1-1-.16-1.53.45-2,.11s-.4-.94-.74-1-.5.34-.56.44a1.58,1.58,0,0,0,0,1.57c.09,0-.08-1.34.15-1.39s.39.35.37.71c0,.62-.9.74-1.22,1.25C33,22.85,34.77,24.54,35.89,26.83Z"/></svg>