<svg id="Layer_1" data-name="Layer 1" xmlns="http://www.w3.org/2000/svg" xmlns:xlink="http://www.w3.org/1999/xlink" viewBox="0 0 79.2 61.2"><defs><style>.cls-1{fill:#fff;}.cls-2,.cls-3{opacity:0.32;}.cls-2{fill:url(#linear-gradient);}.cls-3{fill:url(#linear-gradient-2);}</style><linearGradient id="linear-gradient" x1="93.41" y1="93.02" x2="107.61" y2="93.02" gradientTransform="translate(-99.84 -29.85) rotate(-19.33)" gradientUnits="userSpaceOnUse"><stop offset="0" stop-color="#fff"/><stop offset="0.82" stop-color="#fff" stop-opacity="0"/></linearGradient><linearGradient id="linear-gradient-2" x1="99.86" y1="98.1" x2="110.75" y2="98.1" xlink:href="#linear-gradient"/></defs><title>TimelineFigures</title><path class="cls-1" d="M39.66,23.86c.13.12.31-.06.67.05a.8.8,0,0,1,.34.18,1.29,1.29,0,0,1,.23.36c.15.25.29.24.58.51s.31.48.51.59c.45.26,1.19-.24,1.33-.35A5.45,5.45,0,0,0,44.79,23a3.82,3.82,0,0,0,.63-1.84,2.77,2.77,0,0,0-.15-.93,2.14,2.14,0,0,1,.09-.4c.12-.4.23-.47.19-.61s-.46-.21-.52-.45.1-.19.07-.39-.12-.19-.24-.4,0-.4-.19-.59-.34-.1-.54-.32-.1-.38-.3-.54-.28-.05-.41-.18-.07-.42-.2-.49-.25.18-.53.21c-.09,0-.13,0-.63-.23s-.46-.19-.51-.19c-.3,0-.35.18-.68.2s-.42-.17-.61-.09-.13.39-.42.64-.32.09-.57.29-.16.31-.39.53-.59.22-.68.45.09.23.07.52a2,2,0,0,1-.27.65c-.22.4-.27.42-.27.56s.18.29.18.57-.18.34-.15.57a.73.73,0,0,0,.49.49c.24.1.31,0,.44.09s.06.5.26.94c.13.27.26.28.39.42a.62.62,0,0,1,.11.18,1.26,1.26,0,0,1,.12.5C39.62,23.79,39.61,23.82,39.66,23.86Z"/><path class="cls-1" d="M46.6,22.67c.51.41.16,2-.75,2.91-.12.11-.5.48-.79.38s-.16-.29-.44-.49-.42-.08-.64-.3-.12-.21-.27-.31-.29-.08-.34-.15.52-.91,1-1.87.63-1.73.85-1.71.09.12.36.61a2.14,2.14,0,0,0,.53.72C46.38,22.62,46.47,22.57,46.6,22.67Z"/><path class="cls-1" d="M45.28,30.21a6.59,6.59,0,0,0,1,1.39c2.15,2.43,2.13,3.57,3.37,4.09,1.77.75,4.71-.39,5.39-2.18.47-1.26-.63-1.64-2.54-6.68a6.58,6.58,0,0,0-1.58-2.94,5.65,5.65,0,0,0-3.74-1.31,2.17,2.17,0,0,0-1.6.35c-.45.39-.36.85-.58,2.6-.24,1.91-.44,2.12-.29,3A6.08,6.08,0,0,0,45.28,30.21Z"/><path class="cls-1" d="M54.33,31.55A3.91,3.91,0,0,0,51,31.38a3.62,3.62,0,0,0-2.27,1.87c-.25.66,0,1,.67,3.53.64,2.34.68,2.95,1.36,3.78a3.49,3.49,0,0,0,4.59.92A3.29,3.29,0,0,0,57,38.85c0-.71-.34-.75-.76-2.14-.37-1.19-.18-1.36-.49-2.46S55.16,32.11,54.33,31.55Z"/><path class="cls-1" d="M48.54,37.22c-1,.12-3.23.44-6.22,1.05-4.84,1-5.5,1.53-5.68,2.15a2.41,2.41,0,0,0,.91,2.22c1.08.91,2.27.36,7.15.19a11.82,11.82,0,0,1,3.17.12c1.8.38,1.93,1,3.37,1.1A5.39,5.39,0,0,0,55,42.86a4.5,4.5,0,0,0,.89-1c.41-.61,1.52-2.25.87-3.76a2.72,2.72,0,0,0-1.68-1.49,3.22,3.22,0,0,0-1.82.13C52.08,37.08,52.67,36.67,48.54,37.22Z"/><path class="cls-1" d="M41.69,47.12c0-3.2-.1-3.9-.49-4.71C41,42,40,39.93,38.3,39.77a1.8,1.8,0,0,0-1.49.42c-.58.71.11,2,.74,3.7.85,2.34.24,1.75,1.39,5.91,1.25,4.47,1,5,.8,5.25a5,5,0,0,1-1.8,1.19c-.73.31-1.29.36-1.31.61s.64.54,1,.65a3.83,3.83,0,0,0,1.72,0c.22,0,.52-.12,1.09-.28,1.3-.37,1.95-.56,2.06-.77.27-.48-.22-1.18-.47-1.62C41.29,53.51,41.67,52.82,41.69,47.12Z"/><path class="cls-1" d="M37.65,48c1.89-2.58,2.21-3.22,2.38-4.1.08-.42.51-2.69-.81-3.85a1.77,1.77,0,0,0-1.45-.53c-.88.24-1.07,1.68-1.57,3.43-.68,2.39-.84,1.56-2.35,5.6-1.61,4.35-2.09,4.61-2.43,4.72a4.93,4.93,0,0,1-2.16-.1c-.77-.18-1.25-.45-1.41-.27s.19.81.43,1.12a3.71,3.71,0,0,0,1.4,1,10.53,10.53,0,0,0,1.05.41c1.26.47,1.9.7,2.11.59.5-.23.52-1.09.57-1.59C33.57,52.88,34.29,52.55,37.65,48Z"/><path class="cls-1" d="M45,27.23c-.23.29-.2.48-.72,1.46-.23.42-.41.72-.48.84a11.08,11.08,0,0,0-1.33,3.15c-.16.72-.27,1.28,0,1.52s1.16-.05,1.6-.36A7.78,7.78,0,0,0,46,31.1a4.3,4.3,0,0,1,.56-.83c.49-.58.75-.63,1-.94a2,2,0,0,0-.31-2.65A1.9,1.9,0,0,0,45,27.23Z"/><path class="cls-1" d="M45.21,26.65a14.93,14.93,0,0,0-1.34.91c-.4.26-.71.43-.83.51a11.09,11.09,0,0,0-2.7,2.11c-.49.55-.86,1-.72,1.33s1,.52,1.57.47a7.63,7.63,0,0,0,3-1.46,5.24,5.24,0,0,1,.89-.44c.72-.28,1-.19,1.33-.35a2,2,0,0,0,1-2.46A1.87,1.87,0,0,0,45.21,26.65Z"/><path class="cls-1" d="M39.9,31.76c-2.72-.1-2.15.17-4.17.07-1.09,0-2.13-.17-2.37.31a.75.75,0,0,0,0,.52c.37,1,2.28.75,5.93,1.63a6.28,6.28,0,0,0,3.16.28c.27-.06,1.53-.35,1.62-1,.06-.49-.57-.94-.8-1.1C42.59,32,41.86,31.83,39.9,31.76Z"/><path class="cls-1" d="M31.61,30.91c-.2,0-.25-.15-.45-.14a.49.49,0,0,0-.42.3c-.07.22.19.33.26.77,0,.25,0,.27,0,.52a1.31,1.31,0,0,0,.33.62,1.53,1.53,0,0,0,.87.42A3,3,0,0,0,34,33.15c.61-.21.7-.37.73-.44.18-.41-.27-.94-.37-1.05A3,3,0,0,0,33.3,31c-.83-.4-1.06-.35-1.15-.33S31.85,30.92,31.61,30.91Z"/><path class="cls-1" d="M39.89,29.53c-.85-2.58-.91-2-1.51-3.88-.32-1-.57-2.06-1.11-2.12a.7.7,0,0,0-.48.18c-.84.7.08,2.39.51,6.13a6.24,6.24,0,0,0,.83,3.06c.15.23.86,1.32,1.5,1.17.48-.11.68-.85.76-1.12C40.61,32.14,40.5,31.4,39.89,29.53Z"/><path class="cls-1" d="M37.83,21.47c-.06-.2.05-.29,0-.47a.5.5,0,0,0-.44-.3c-.23,0-.24.29-.62.51-.23.13-.27.06-.49.2a1.31,1.31,0,0,0-.47.53,1.56,1.56,0,0,0-.1.95,3.07,3.07,0,0,0,.86,1.6c.41.5.59.53.67.53.44,0,.78-.57.86-.7a3.17,3.17,0,0,0,.26-1.25c.1-.91,0-1.11-.09-1.19S37.9,21.69,37.83,21.47Z"/><path class="cls-1" d="M31.64,33.12h2.23V28.68h-.16a2.42,2.42,0,0,0-.92-.2,2.61,2.61,0,0,0-1,.2h-.16Z"/><rect class="cls-1" x="32.52" y="28.34" width="1.16" height="0.16" transform="translate(-10.4 31.73) rotate(-45)"/><ellipse class="cls-1" cx="51.07" cy="43.21" rx="7" ry="1.93"/><ellipse class="cls-1" cx="60.02" cy="32.72" rx="6.59" ry="2.42" transform="translate(14.87 84.05) rotate(-77.26)"/><rect class="cls-1" x="57.38" y="38.45" width="1.49" height="4.76" transform="translate(20.24 -19.26) rotate(22.68)"/><rect class="cls-1" x="50.45" y="44.1" width="1.91" height="8.9"/><rect class="cls-1" x="45.96" y="53.01" width="10.64" height="1.12"/><circle class="cls-1" cx="56.6" cy="55.17" r="1.6"/><circle class="cls-1" cx="45.96" cy="55.17" r="1.6"/><rect class="cls-1" x="50.45" y="53.57" width="1.91" height="3.2" rx="0.95"/><path class="cls-2" d="M32.72,31.26l-12.07.19q-.64-5.91-1.3-11.8l10.33-5.37Z"/><rect class="cls-1" x="15.74" y="34.17" width="25.08" height="2.34"/><rect class="cls-1" x="22.52" y="35.34" width="2.76" height="22.99"/><rect class="cls-1" x="18.81" y="19.67" width="1.41" height="12.39" transform="translate(-2.86 2.43) rotate(-6.63)"/><rect class="cls-1" x="18.5" y="28.04" width="1.19" height="6.53" transform="translate(6.09 -2.98) rotate(10.61)"/><rect class="cls-1" x="19.79" y="33.55" width="4.81" height="0.62"/><rect class="cls-1" x="18.83" y="35.51" width="0.26" height="21.82" transform="translate(-6.99 3.52) rotate(-8.96)"/><rect class="cls-1" x="18.83" y="35.31" width="0.26" height="21.82" transform="translate(-4.31 2.01) rotate(-5.45)"/><rect class="cls-1" x="16.99" y="56.73" width="4.27" height="1.6" rx="0.8"/><path class="cls-1" d="M28.05,33.53,35,33.46l-.33.69a14.92,14.92,0,0,1-7-.11,36.36,36.36,0,0,1-1-4.14A37.94,37.94,0,0,1,26,24.33l.89-1.6C27.3,26.33,27.68,29.93,28.05,33.53Z"/><path class="cls-3" d="M37.31,32.92l-9.25.15c-.33-3-.66-6-1-9L35,19.91Z"/></svg>