<svg id="Layer_1" data-name="Layer 1" xmlns="http://www.w3.org/2000/svg" viewBox="0 0 79.2 61.2"><defs><style>.cls-1{fill:#fff;}</style></defs><title>TimelineFigures</title><path class="cls-1" d="M60.4,21c-.14.12,0,.31-.14.66A.68.68,0,0,1,60,22a1,1,0,0,1-.38.19c-.27.12-.28.25-.58.51s-.51.25-.65.43c-.31.42.1,1.22.18,1.37a5.78,5.78,0,0,0,2,1.72,3.9,3.9,0,0,0,1.75.86,3.09,3.09,0,0,0,1,0,2.35,2.35,0,0,1,.38.14c.38.16.44.28.58.26s.26-.43.51-.46.18.12.38.12.2-.1.43-.19.4,0,.6-.12.15-.32.39-.5.39-.05.57-.23.08-.27.23-.38.43,0,.51-.14-.15-.27-.14-.55c0-.09,0-.13.3-.6s.25-.43.26-.49c0-.29-.14-.36-.12-.69s.22-.39.17-.59-.37-.18-.59-.51,0-.32-.22-.59-.29-.2-.48-.45-.14-.62-.36-.73-.24.06-.52,0a1.68,1.68,0,0,1-.62-.35c-.37-.26-.38-.31-.52-.33s-.31.14-.59.11-.31-.23-.55-.22a.74.74,0,0,0-.54.42c-.13.23,0,.31-.14.43s-.51,0-1,.14c-.28.09-.31.22-.47.33a.68.68,0,0,1-.18.1,1.3,1.3,0,0,1-.52.05C60.47,21,60.45,21,60.4,21Z"/><path class="cls-1" d="M60.72,28.08c-.46.45-2-.09-2.79-1.11-.1-.13-.41-.56-.27-.83s.29-.12.53-.38.14-.4.38-.59.22-.1.34-.23.11-.28.19-.33.83.64,1.73,1.27,1.64.84,1.59,1.06-.13.06-.65.27a2,2,0,0,0-.78.45C60.8,27.86,60.84,28,60.72,28.08Z"/><path class="cls-1" d="M53.4,25.84a6.87,6.87,0,0,0-1.49.79c-2.68,1.84-3.8,1.68-4.47,2.84-1,1.67-.2,4.73,1.5,5.62,1.19.63,1.7-.42,6.94-1.7A6.52,6.52,0,0,0,59,32.18a5.63,5.63,0,0,0,1.76-3.55A2.24,2.24,0,0,0,60.6,27c-.33-.49-.8-.46-2.51-.89-1.87-.47-2.05-.7-2.94-.66A6.09,6.09,0,0,0,53.4,25.84Z"/><path class="cls-1" d="M49.61,35.51a4,4,0,0,0,1.53-3,3.67,3.67,0,0,0-.79-2.84c-.49-.49-.86-.41-3.49-.82-2.4-.38-3-.58-4-.31a3.49,3.49,0,0,0-2.71,3.81A3.29,3.29,0,0,0,41.85,35c.64.29.82,0,2.26.18,1.24.15,1.31.4,2.45.56S48.75,36,49.61,35.51Z"/><path class="cls-1" d="M39.94,25.94c-3.29-1.47-2.86-1.47-5.18-2.46-4.84-2.05-5.63-1.58-5.92-1.34a2.42,2.42,0,0,0-.47,2.36c.4,1.35,1.7,1.55,5.86,4.1a11.94,11.94,0,0,1,2.58,1.84c1.29,1.32,1,1.9,2.21,2.78a5.38,5.38,0,0,0,3.77,1.08,4.84,4.84,0,0,0,1.3-.37c.68-.28,2.52-1,2.8-2.65a2.69,2.69,0,0,0-.58-2.17,3.12,3.12,0,0,0-1.59-.9C43,27.75,41.55,26.66,39.94,25.94Z"/><path class="cls-1" d="M22.67,22.9C25.34,24.68,26,25,26.88,25.1c.42.06,2.71.39,3.8-1a1.77,1.77,0,0,0,.47-1.47c-.27-.88-1.72-1-3.49-1.43-2.42-.58-1.6-.77-5.7-2.1-4.42-1.43-4.69-1.89-4.82-2.23a5.11,5.11,0,0,1,0-2.16c.15-.78.41-1.27.21-1.42s-.8.23-1.09.48a3.63,3.63,0,0,0-.94,1.44c-.09.21-.19.5-.37,1.06-.41,1.29-.61,1.93-.5,2.15.26.48,1.11.46,1.61.49C17.57,19,17.94,19.74,22.67,22.9Z"/><path class="cls-1" d="M41.38,30.28c-1.84.13-3,1.08-7.64,3.31-3.72,1.78-5.06,2.18-5.14,3.23a2.4,2.4,0,0,0,1.33,2c1.24.68,2.3-.1,7-1.25a12.09,12.09,0,0,1,3.12-.51c1.84,0,2.09.6,3.53.4a5.33,5.33,0,0,0,3.43-1.9,5.12,5.12,0,0,0,.66-1.18c.28-.68,1-2.51.1-3.86a2.68,2.68,0,0,0-1.94-1.12c-.63,0-.94.22-1.76.49A9.44,9.44,0,0,1,41.38,30.28Z"/><path class="cls-1" d="M27.08,43.57c2.55-1.94,3-2.45,3.45-3.25.2-.38,1.26-2.43.34-3.91-.1-.16-.56-.91-1.24-.93-.91,0-1.51,1.3-2.49,2.83-1.34,2.1-1.25,1.25-3.86,4.7-2.8,3.69-3.32,3.81-3.68,3.81a4.9,4.9,0,0,1-2-.71c-.69-.39-1.07-.8-1.28-.67s-.05.84.1,1.2A3.6,3.6,0,0,0,17.43,48a9.75,9.75,0,0,0,.88.69c1.08.81,1.62,1.22,1.86,1.18.54-.08.8-.9,1-1.36C21.75,47.12,22.54,47,27.08,43.57Z"/><path class="cls-1" d="M57.91,26.15a16,16,0,0,0-.07-1.62c0-.48,0-.83,0-1a11.19,11.19,0,0,0-.38-3.41c-.21-.7-.39-1.24-.75-1.31s-1,.61-1.23,1.09a7.66,7.66,0,0,0-.36,3.35,5.11,5.11,0,0,1-.09,1c-.14.75-.35.91-.4,1.3-.1.82.56,2.12,1.56,2.17A1.9,1.9,0,0,0,57.91,26.15Z"/><path class="cls-1" d="M57.89,17c.21-2.72-.08-2.16.1-4.17.1-1.08.26-2.12-.21-2.38a.72.72,0,0,0-.52,0c-1,.32-.84,2.24-1.88,5.86A6.35,6.35,0,0,0,55,19.48c.05.26.29,1.54.94,1.65.48.08,1-.52,1.13-.75C57.55,19.72,57.74,19,57.89,17Z"/><path class="cls-1" d="M59.08,8.8c0-.2.17-.25.16-.44A.49.49,0,0,0,59,7.92c-.22-.08-.34.17-.78.23-.25,0-.27-.05-.52,0a1.39,1.39,0,0,0-.64.31,1.57,1.57,0,0,0-.46.85,3.17,3.17,0,0,0,.18,1.8c.19.62.34.71.42.75.4.19.94-.23,1.06-.32a3.05,3.05,0,0,0,.72-1c.44-.81.4-1.05.38-1.13C59.26,9.12,59.06,9,59.08,8.8Z"/><path class="cls-1" d="M58.55,29.32c.36-.12.53,0,1.61-.19.48-.07.82-.14,1-.17a11.42,11.42,0,0,1,3.42-.19c.73.1,1.29.18,1.42.53s-.44,1.08-.88,1.39a7.51,7.51,0,0,1-3.24.9,4.71,4.71,0,0,0-1,.25c-.72.26-.85.5-1.22.61a2,2,0,0,1-2.39-1.18A1.89,1.89,0,0,1,58.55,29.32Z"/><path class="cls-1" d="M67.55,27.85c2.64-.65,2.14-.27,4.09-.78,1-.28,2-.61,2.38-.18a.64.64,0,0,1,.1.5c-.14,1.08-2.07,1.2-5.46,2.81a6.37,6.37,0,0,1-3,.93c-.27,0-1.57,0-1.79-.66-.16-.46.37-1,.56-1.23C65,28.62,65.64,28.32,67.55,27.85Z"/><path class="cls-1" d="M75.48,25.32c.19-.05.21-.2.41-.23a.48.48,0,0,1,.48.21c.11.2-.12.36-.1.8,0,.26.09.26.09.51a1.33,1.33,0,0,1-.2.68,1.51,1.51,0,0,1-.76.59,3.17,3.17,0,0,1-1.81.13c-.64-.09-.76-.22-.81-.29-.25-.37.08-1,.15-1.1a3.17,3.17,0,0,1,.91-.89c.73-.56,1-.56,1.06-.55S75.25,25.38,75.48,25.32Z"/></svg>