<svg id="Layer_1" data-name="Layer 1" xmlns="http://www.w3.org/2000/svg" xmlns:xlink="http://www.w3.org/1999/xlink" viewBox="0 0 79.2 61.2"><defs><style>.cls-1{fill:#fff;}.cls-2{opacity:0.32;fill:url(#linear-gradient);}</style><linearGradient id="linear-gradient" x1="143.46" y1="-28.41" x2="154.35" y2="-28.41" gradientTransform="matrix(0.78, -0.62, 0.62, 0.78, -74.56, 155.95)" gradientUnits="userSpaceOnUse"><stop offset="0" stop-color="#fff"/><stop offset="0.82" stop-color="#fff" stop-opacity="0"/></linearGradient></defs><title>TimelineFigures</title><path class="cls-1" d="M26.16,40.45c.16-.1,0-.32.26-.63a.8.8,0,0,1,.28-.27,1.25,1.25,0,0,1,.41-.11c.28-.06.32-.19.66-.39s.55-.15.72-.3c.38-.35.13-1.21.08-1.38A5.69,5.69,0,0,0,27,35.31a3.82,3.82,0,0,0-1.56-1.17,3,3,0,0,0-.94-.14,2.64,2.64,0,0,1-.35-.21c-.34-.24-.37-.37-.52-.37s-.33.37-.58.35-.16-.15-.35-.18-.22,0-.46.1-.4-.07-.62,0-.2.29-.48.41-.38,0-.59.12-.14.25-.31.33-.42-.06-.52,0,.1.29,0,.57c0,.09,0,.12-.41.53s-.32.38-.34.43c-.11.28.07.39,0,.71s-.29.34-.27.54.33.25.48.61,0,.33.1.63.25.24.39.53,0,.63.22.78.24,0,.51.1.27.19.53.46.33.38.45.43.34-.08.6,0,.27.28.5.32a.77.77,0,0,0,.62-.31c.16-.2.09-.3.22-.4s.49.1,1,0c.3,0,.35-.15.52-.23a.76.76,0,0,1,.21-.06,1.26,1.26,0,0,1,.51,0C26.09,40.46,26.11,40.48,26.16,40.45Z"/><path class="cls-1" d="M27.18,33.47c.53-.36,2,.47,2.53,1.61.07.15.3.63.11.87s-.31.06-.59.27-.22.38-.49.51-.23.06-.38.17-.16.24-.24.28c-.25.1-.71-.78-1.46-1.57s-1.46-1.14-1.36-1.34.14,0,.68-.15a2,2,0,0,0,.85-.29C27.06,33.67,27,33.56,27.18,33.47Z"/><path class="cls-1" d="M33.94,37.05a6.61,6.61,0,0,0,1.62-.49c3-1.3,4-.93,4.93-1.94,1.26-1.46,1.08-4.61-.42-5.81-1-.84-1.75.09-7.14.36a6.58,6.58,0,0,0-3.28.6,5.59,5.59,0,0,0-2.39,3.15,2.24,2.24,0,0,0-.17,1.63c.23.55.7.61,2.3,1.35s1.88,1.08,2.76,1.2A5.86,5.86,0,0,0,33.94,37.05Z"/><path class="cls-1" d="M38.33,28.63a3.9,3.9,0,0,0-2,2.75,3.65,3.65,0,0,0,.36,2.92c.42.56.79.53,3.33,1.33,2.32.72,2.85,1,3.92.89a3.65,3.65,0,0,0,1.9-.73,3.75,3.75,0,0,0,1.35-2.64,3.33,3.33,0,0,0-1.31-2.85c-.59-.38-.81-.12-2.21-.51-1.2-.34-1.24-.59-2.34-.92S39.25,28.23,38.33,28.63Z"/><path class="cls-1" d="M39.32,35.82c-.53.82-1.76,2.75-3.22,5.42-2.38,4.34-2.4,5.19-2.05,5.72a2.4,2.4,0,0,0,2.28.75c1.4-.23,1.75-1.5,4.78-5.33A12,12,0,0,1,43.25,40c1.46-1.12,2-.81,3-1.85a5.41,5.41,0,0,0,1.53-3.62,5,5,0,0,0-.21-1.33c-.2-.72-.73-2.63-2.3-3.1a2.7,2.7,0,0,0-2.22.31A3.22,3.22,0,0,0,42,31.92C41.5,33,41.58,32.32,39.32,35.82Z"/><path class="cls-1" d="M42.62,42.63c-3.2,0-3.9.17-4.7.57-.38.19-2.46,1.21-2.59,2.95a1.81,1.81,0,0,0,.45,1.48c.72.57,2-.15,3.69-.8,2.31-.9,1.74-.27,5.88-1.5,4.45-1.32,4.94-1.1,5.23-.89a4.93,4.93,0,0,1,1.22,1.78c.33.73.39,1.28.64,1.29s.53-.64.63-1a3.81,3.81,0,0,0,0-1.72c0-.23-.13-.52-.3-1.09-.39-1.29-.59-1.93-.8-2-.49-.25-1.18.25-1.61.51C49,42.92,48.32,42.55,42.62,42.63Z"/><path class="cls-1" d="M42.46,38.48c.11,1,.37,3.24.91,6.24.89,4.86,1.41,5.54,2,5.72a2.37,2.37,0,0,0,2.24-.85c.94-1.06.41-2.26.35-7.15a11.92,11.92,0,0,1,.2-3.16c.43-1.79,1-1.9,1.18-3.35a5.41,5.41,0,0,0-1.1-3.77,4.88,4.88,0,0,0-1-.9c-.6-.43-2.22-1.58-3.74-1A2.7,2.7,0,0,0,42,32a3.13,3.13,0,0,0,.08,1.82C42.41,34.94,42,34.33,42.46,38.48Z"/><path class="cls-1" d="M52.36,45.2c-3.21,0-3.91.12-4.72.5-.38.18-2.47,1.18-2.63,2.92a1.82,1.82,0,0,0,.43,1.48c.71.58,2-.12,3.7-.75,2.33-.86,1.75-.24,5.9-1.41,4.47-1.26,5-1,5.25-.82a4.82,4.82,0,0,1,1.19,1.8c.32.73.38,1.28.62,1.3s.54-.64.64-1a3.69,3.69,0,0,0,0-1.72c0-.22-.12-.51-.29-1.09-.37-1.29-.56-1.94-.77-2.06-.48-.26-1.18.23-1.62.48C58.74,45.58,58.05,45.2,52.36,45.2Z"/><path class="cls-1" d="M29.43,35a14.56,14.56,0,0,0,.89,1.36c.25.41.41.71.48.84A11.08,11.08,0,0,0,32.86,40c.54.5,1,.88,1.31.75s.55-1,.5-1.57a7.56,7.56,0,0,0-1.39-3.06,4.41,4.41,0,0,1-.42-.89c-.27-.72-.17-1-.33-1.33a2,2,0,0,0-2.44-1.07A1.89,1.89,0,0,0,29.43,35Z"/><path class="cls-1" d="M30.27,41.44c-1.87,2-1.29,1.73-2.7,3.18-.75.78-1.53,1.48-1.33,2a.68.68,0,0,0,.39.34c1,.41,2.06-1.21,5.14-3.37a6.19,6.19,0,0,0,2.3-2.19c.13-.23.75-1.38.32-1.87s-1.08-.2-1.35-.13C32.22,39.57,31.62,40,30.27,41.44Z"/><path class="cls-1" d="M24.16,47.09c-.14.15-.28.09-.4.25a.49.49,0,0,0-.06.52c.13.2.37.08.75.31.22.13.18.21.4.33a1.28,1.28,0,0,0,.69.16,1.49,1.49,0,0,0,.89-.37,3.16,3.16,0,0,0,1-1.51c.24-.6.18-.77.15-.84-.2-.4-.89-.42-1-.42a2.92,2.92,0,0,0-1.21.36c-.86.35-1,.56-1,.64S24.32,46.93,24.16,47.09Z"/><path class="cls-1" d="M28.84,32.69A14.5,14.5,0,0,0,29,34.31c0,.48,0,.83,0,1a11.36,11.36,0,0,0,.58,3.38c.26.69.46,1.22.83,1.26s1-.66,1.16-1.16a7.7,7.7,0,0,0,.16-3.36,5,5,0,0,1,0-1c.1-.76.3-.94.32-1.33.06-.82-.67-2.08-1.68-2.07A1.89,1.89,0,0,0,28.84,32.69Z"/><path class="cls-1" d="M28.64,39c-.9,2.57-.48,2.1-1.18,4-.37,1-.8,2-.41,2.35a.7.7,0,0,0,.49.15c1.09,0,1.4-1.94,3.34-5.17a6.3,6.3,0,0,0,1.21-2.93c0-.27.12-1.56-.48-1.84-.44-.21-1.06.26-1.28.43C29.66,36.45,29.29,37.1,28.64,39Z"/><path class="cls-1" d="M25.35,46.6c-.07.19-.22.19-.27.38a.51.51,0,0,0,.16.5c.2.13.37-.08.81,0,.26,0,.25.12.5.14a1.36,1.36,0,0,0,.7-.13,1.55,1.55,0,0,0,.66-.7,3.13,3.13,0,0,0,.3-1.79c0-.64-.14-.77-.21-.83-.34-.29-1,0-1.11,0a3.12,3.12,0,0,0-1,.82c-.63.67-.65.91-.65,1C25.27,46.25,25.43,46.38,25.35,46.6Z"/><path class="cls-1" d="M22.29,47.55l6.52-2.35-.08.76a15.38,15.38,0,0,1-4.2,1.79,16,16,0,0,1-2.46.42,37.37,37.37,0,0,1-4.72-8.64l.32-1.81Z"/><path class="cls-2" d="M30.83,43.93l-8.69,3.18L18.22,38.9l6.12-6.5Z"/></svg>