<svg id="Layer_1" data-name="Layer 1" xmlns="http://www.w3.org/2000/svg" xmlns:xlink="http://www.w3.org/1999/xlink" viewBox="0 0 79.2 61.2"><defs><style>.cls-1{fill:#fff;}.cls-2{opacity:0.32;fill:url(#linear-gradient);}</style><linearGradient id="linear-gradient" x1="105.35" y1="92.47" x2="116.24" y2="92.47" gradientTransform="matrix(0.99, -0.16, 0.16, 0.99, -85.27, -41.82)" gradientUnits="userSpaceOnUse"><stop offset="0" stop-color="#fff"/><stop offset="0.82" stop-color="#fff" stop-opacity="0"/></linearGradient></defs><title>TimelineFigures</title><path class="cls-1" d="M47.45,32.56c0,.17.29.13.51.44a.88.88,0,0,1,.16.35,1,1,0,0,1,0,.43c0,.29.08.36.16.75s0,.57,0,.78c.2.48,1.1.52,1.27.53A5.84,5.84,0,0,0,52.05,35a3.84,3.84,0,0,0,1.61-1.09,2.67,2.67,0,0,0,.43-.84c.07-.06.18-.16.32-.26.33-.25.47-.24.52-.38s-.24-.43-.14-.66.19-.1.29-.27,0-.23.05-.47.2-.35.19-.58-.2-.29-.23-.59.15-.36.08-.6S55,29,55,28.85s.2-.38.14-.5-.31,0-.55-.16c-.08-.05-.1-.09-.37-.56s-.25-.43-.29-.46c-.23-.2-.39-.07-.66-.25s-.23-.39-.43-.44-.34.23-.73.26-.31-.13-.62-.11-.32.15-.63.19-.61-.18-.82-.05-.07.24-.25.45a1.82,1.82,0,0,1-.61.36c-.42.19-.47.18-.56.28s0,.35-.19.57-.36.16-.47.37a.77.77,0,0,0,.09.68c.14.22.26.19.31.34s-.26.43-.36.91a1.19,1.19,0,0,0,0,.56.66.66,0,0,1,0,.21,1.22,1.22,0,0,1-.21.48C47.47,32.48,47.44,32.49,47.45,32.56Z"/><path class="cls-1" d="M53.72,35.79c.16.62-1.09,1.71-2.35,1.86-.17,0-.7.09-.87-.17s0-.32,0-.65-.29-.32-.33-.63,0-.24,0-.41-.18-.23-.19-.32c0-.27,1-.41,2-.87s1.54-1,1.7-.85,0,.15-.08.7a2.21,2.21,0,0,0,0,.9C53.57,35.61,53.67,35.63,53.72,35.79Z"/><path class="cls-1" d="M48.12,41a6.41,6.41,0,0,0-.06,1.69c.26,3.24-.44,4.14.23,5.3,1,1.67,4,2.53,5.62,1.5,1.14-.72.48-1.69,2-6.87a6.52,6.52,0,0,0,.5-3.29A5.63,5.63,0,0,0,54.21,36a2.3,2.3,0,0,0-1.49-.69c-.59,0-.8.47-2,1.73s-1.64,1.44-2,2.22A6.15,6.15,0,0,0,48.12,41Z"/><path class="cls-1" d="M54.65,47.91a3.93,3.93,0,0,0-2-2.75,3.62,3.62,0,0,0-2.87-.61c-.67.21-.77.57-2.35,2.72-1.44,1.95-1.89,2.36-2.12,3.41a3.62,3.62,0,0,0,.06,2,3.77,3.77,0,0,0,2.06,2.14,3.3,3.3,0,0,0,3.12-.31c.56-.44.38-.73,1.21-1.92.71-1,1-1,1.62-1.91S54.73,48.91,54.65,47.91Z"/><path class="cls-1" d="M45.83,47.56c-.72-.66-2.42-2.18-4.82-4.06-3.89-3.06-4.72-3.22-5.31-3a2.43,2.43,0,0,0-1.11,2.13c0,1.42,1.2,2,4.48,5.58a12.49,12.49,0,0,1,2,2.5c.87,1.62.48,2.12,1.34,3.29a5.36,5.36,0,0,0,3.32,2.09,4.66,4.66,0,0,0,1.34,0c.74-.08,2.71-.3,3.44-1.77a2.66,2.66,0,0,0,0-2.24,3.19,3.19,0,0,0-1.27-1.31C48.22,50.18,48.91,50.37,45.83,47.56Z"/><path class="cls-1" d="M35.57,48.52c1.86-2.61,2.17-3.25,2.32-4.13.08-.42.48-2.7-.85-3.83A1.76,1.76,0,0,0,35.59,40c-.89.25-1.06,1.7-1.54,3.45-.65,2.4-.81,1.57-2.27,5.63-1.56,4.37-2,4.64-2.37,4.75a4.87,4.87,0,0,1-2.16-.07c-.78-.17-1.26-.44-1.42-.25s.21.81.45,1.11a3.76,3.76,0,0,0,1.41,1c.2.1.49.2,1,.4,1.27.45,1.91.67,2.13.57.49-.24.5-1.1.54-1.6C31.56,53.51,32.27,53.16,35.57,48.52Z"/><path class="cls-1" d="M33.56,48.27c2.77-1.62,3.31-2.08,3.81-2.82.24-.35,1.54-2.27.8-3.85-.08-.16-.45-1-1.12-1.06-.91-.14-1.66,1.11-2.81,2.52-1.58,1.92-1.39,1.09-4.38,4.2-3.22,3.35-3.75,3.39-4.11,3.36a5,5,0,0,1-1.94-.95c-.64-.47-1-.92-1.19-.81s-.15.82-.05,1.2a3.85,3.85,0,0,0,.88,1.47c.15.17.37.38.8.8,1,.93,1.47,1.39,1.71,1.38.55,0,.9-.79,1.15-1.23C27.86,51.16,28.65,51.15,33.56,48.27Z"/><path class="cls-1" d="M51.51,37.41a15.34,15.34,0,0,0-1.58.4c-.47.1-.81.16-1,.18a11,11,0,0,0-3.26,1c-.65.35-1.15.62-1.14,1s.8.85,1.32,1a7.76,7.76,0,0,0,3.34-.31,4.59,4.59,0,0,1,1-.12c.76,0,1,.16,1.36.13.82-.06,2-1,1.81-1.95A1.88,1.88,0,0,0,51.51,37.41Z"/><path class="cls-1" d="M43.25,38.11c-2.72-.07-2.15.19-4.17.11-1.08,0-2.13-.15-2.36.34a.61.61,0,0,0,0,.51c.37,1,2.27.73,5.94,1.58a6.27,6.27,0,0,0,3.16.25c.26-.07,1.53-.37,1.61-1,.06-.49-.58-.93-.81-1.09C45.94,38.31,45.21,38.16,43.25,38.11Z"/><path class="cls-1" d="M35,37.34c-.2,0-.26-.15-.45-.14a.51.51,0,0,0-.42.31c-.07.23.19.33.26.76,0,.26,0,.28,0,.52a1.41,1.41,0,0,0,.34.63,1.55,1.55,0,0,0,.86.41,3.13,3.13,0,0,0,1.8-.27c.6-.22.69-.37.72-.45.17-.41-.28-.94-.37-1a3.12,3.12,0,0,0-1.09-.66c-.83-.4-1.06-.35-1.15-.32S35.19,37.35,35,37.34Z"/><path class="cls-1" d="M50.16,39.17c-.35.12-.43.29-1.4.82-.42.22-.74.37-.87.43A11.5,11.5,0,0,0,45,42.32c-.52.52-.93.92-.82,1.28s1,.6,1.54.58A7.44,7.44,0,0,0,48.89,43a5.14,5.14,0,0,1,.92-.38c.73-.22,1-.11,1.35-.24A2,2,0,0,0,52.36,40,1.89,1.89,0,0,0,50.16,39.17Z"/><path class="cls-1" d="M42.69,40.9c-2.55-.95-2.09-.52-4-1.25-1-.4-2-.84-2.34-.46a.69.69,0,0,0-.16.48c0,1.09,1.92,1.44,5.1,3.44a6.17,6.17,0,0,0,2.91,1.27c.26,0,1.56.16,1.85-.43s-.24-1.07-.41-1.3C45.17,42,44.53,41.59,42.69,40.9Z"/><path class="cls-1" d="M35.11,37.46c-.19-.08-.19-.23-.38-.28a.51.51,0,0,0-.5.15c-.14.19.07.38,0,.81,0,.26-.12.25-.15.5a1.41,1.41,0,0,0,.12.7,1.64,1.64,0,0,0,.68.68,3.16,3.16,0,0,0,1.79.33c.64,0,.78-.13.83-.19.3-.33,0-1,0-1.11a3.08,3.08,0,0,0-.81-1c-.65-.64-.89-.67-1-.67C35.46,37.38,35.33,37.54,35.11,37.46Z"/><path class="cls-1" d="M33.9,36.78l6.84,1.16-.44.61a14.93,14.93,0,0,1-4.54-.5,15.47,15.47,0,0,1-2.35-.84A38.82,38.82,0,0,1,33.15,33a36.79,36.79,0,0,1,.4-5.58L34.71,26Z"/><path class="cls-2" d="M43.12,37.82,34,36.32q.32-4.53.62-9.08l8.52-2.65Z"/></svg>