<svg id="Layer_1" data-name="Layer 1" xmlns="http://www.w3.org/2000/svg" xmlns:xlink="http://www.w3.org/1999/xlink" viewBox="0 0 79.2 61.2"><defs><style>.cls-1{fill:#fff;}.cls-2,.cls-3{opacity:0.32;}.cls-2{fill:url(#linear-gradient);}.cls-3{fill:url(#linear-gradient-2);}</style><linearGradient id="linear-gradient" x1="83.69" y1="33.61" x2="94.57" y2="33.61" gradientTransform="translate(-59.37 25.39) rotate(-19.33)" gradientUnits="userSpaceOnUse"><stop offset="0" stop-color="#fff"/><stop offset="0.82" stop-color="#fff" stop-opacity="0"/></linearGradient><linearGradient id="linear-gradient-2" x1="75.04" y1="27.83" x2="89.24" y2="27.83" xlink:href="#linear-gradient"/></defs><title>TimelineFigures</title><path class="cls-1" d="M31.91,33.26l6.94-.07-.33.69a14.89,14.89,0,0,1-7-.11,36.36,36.36,0,0,1-1-4.14,37.94,37.94,0,0,1-.59-5.57l.89-1.6C31.16,26.06,31.54,29.66,31.91,33.26Z"/><path class="cls-2" d="M41.17,32.65l-9.25.15c-.33-3-.67-6-1-9l7.92-4.11Z"/><path class="cls-1" d="M40.21,23.65c.14.12.31-.06.68.05a1,1,0,0,1,.33.18,1.17,1.17,0,0,1,.24.37c.15.24.28.24.57.5s.31.48.51.6c.45.25,1.19-.25,1.34-.35a5.85,5.85,0,0,0,1.47-2.16A3.85,3.85,0,0,0,46,21a2.74,2.74,0,0,0-.16-.93c0-.09,0-.23.09-.4.12-.4.23-.47.19-.61s-.45-.2-.51-.45.09-.19.07-.38-.12-.2-.24-.41-.05-.4-.2-.58-.34-.11-.54-.33-.1-.38-.3-.53-.28-.06-.41-.19-.07-.42-.19-.48-.25.18-.53.2c-.1,0-.14,0-.64-.22s-.45-.2-.51-.2c-.3,0-.35.18-.68.2s-.41-.17-.6-.09-.14.39-.43.64-.32.09-.56.29-.16.31-.39.53-.6.22-.68.45.09.23.07.52a1.86,1.86,0,0,1-.28.65c-.21.4-.26.43-.27.56s.18.3.19.57-.19.34-.15.58a.76.76,0,0,0,.48.49c.24.09.32,0,.45.08s.06.51.26.95c.12.27.25.28.38.42a1.1,1.1,0,0,1,.12.17,1.46,1.46,0,0,1,.12.5C40.18,23.58,40.16,23.61,40.21,23.65Z"/><path class="cls-1" d="M47.16,22.47c.51.4.16,2-.76,2.9-.12.12-.5.48-.79.38s-.15-.28-.44-.49-.42-.08-.63-.3-.13-.2-.28-.31-.28-.08-.34-.15.52-.9,1-1.87.63-1.73.85-1.71.08.13.35.61a2,2,0,0,0,.54.72C46.93,22.42,47,22.36,47.16,22.47Z"/><path class="cls-1" d="M45.83,30a6.44,6.44,0,0,0,1,1.38C49,33.82,48.94,35,50.17,35.48c1.78.75,4.72-.38,5.39-2.18C56,32,54.94,31.66,53,26.62a6.49,6.49,0,0,0-1.58-2.94,5.64,5.64,0,0,0-3.73-1.31,2.31,2.31,0,0,0-1.61.35c-.45.39-.36.85-.57,2.6-.24,1.92-.45,2.13-.29,3A6,6,0,0,0,45.83,30Z"/><path class="cls-1" d="M54.88,31.34a3.91,3.91,0,0,0-3.37-.17A3.64,3.64,0,0,0,49.25,33c-.25.66,0,1,.67,3.53.63,2.34.68,3,1.36,3.79a3.62,3.62,0,0,0,1.63,1.2,3.72,3.72,0,0,0,3-.28,3.32,3.32,0,0,0,1.7-2.64c0-.71-.33-.75-.76-2.13-.36-1.2-.17-1.37-.49-2.47S55.72,31.9,54.88,31.34Z"/><path class="cls-1" d="M49.09,37c-1,.12-3.23.44-6.21,1.05-4.85,1-5.51,1.53-5.68,2.15a2.38,2.38,0,0,0,.91,2.22c1.08.92,2.27.36,7.15.19a11.69,11.69,0,0,1,3.16.12c1.8.39,1.93,1,3.38,1.1a5.41,5.41,0,0,0,3.74-1.18,4.67,4.67,0,0,0,.88-1c.41-.61,1.53-2.25.87-3.76a2.69,2.69,0,0,0-1.68-1.48,3.06,3.06,0,0,0-1.82.13C52.63,36.87,53.23,36.47,49.09,37Z"/><path class="cls-1" d="M44.47,44.58c-1.24-3-1.62-3.55-2.29-4.15-.32-.29-2-1.83-3.71-1.3-.17.06-1,.32-1.2,1-.26.88.88,1.79,2.12,3.12,1.7,1.81.91,1.52,3.59,4.9,2.89,3.63,2.87,4.17,2.78,4.52a4.81,4.81,0,0,1-1.19,1.79c-.55.58-1,.84-1,1.08s.79.25,1.18.2A3.71,3.71,0,0,0,46.37,55c.19-.12.42-.31.89-.68,1.05-.84,1.58-1.27,1.6-1.51.06-.55-.67-1-1.07-1.31C46.59,50.62,46.67,49.83,44.47,44.58Z"/><path class="cls-1" d="M45.38,42.47c-2.37-2.15-3-2.53-3.82-2.79-.41-.13-2.62-.8-3.91.38A1.79,1.79,0,0,0,37,41.45c.13.91,1.55,1.25,3.24,1.93,2.3.93,1.46,1,5.32,2.93,4.15,2.07,4.36,2.57,4.43,2.92a4.89,4.89,0,0,1-.33,2.14c-.26.75-.59,1.2-.42,1.37s.83-.1,1.16-.31a3.54,3.54,0,0,0,1.14-1.28,10.66,10.66,0,0,0,.52-1c.6-1.2.9-1.81.82-2-.18-.52-1-.63-1.52-.73C49.85,47.06,49.6,46.3,45.38,42.47Z"/><path class="cls-1" d="M46,27.48c-.33.17-.39.36-1.26,1-.38.29-.67.48-.79.56a11.24,11.24,0,0,0-2.52,2.32c-.44.59-.77,1-.61,1.39s1.08.44,1.61.34a7.8,7.8,0,0,0,2.9-1.69,5,5,0,0,1,.85-.52c.69-.33.95-.26,1.29-.45a2,2,0,0,0,.82-2.54A1.89,1.89,0,0,0,46,27.48Z"/><path class="cls-1" d="M45.55,24.94c-.35.14-.42.32-1.36.9-.4.26-.71.42-.84.49a11.31,11.31,0,0,0-2.73,2.07c-.49.55-.86,1-.73,1.32s1,.54,1.56.5a7.89,7.89,0,0,0,3.06-1.41,4.31,4.31,0,0,1,.89-.44c.72-.26,1-.17,1.33-.32a2,2,0,0,0,1.05-2.45A1.88,1.88,0,0,0,45.55,24.94Z"/><path class="cls-1" d="M39.22,30.23c-2.66-.56-2.15-.2-4.12-.64-1.06-.24-2.06-.53-2.38-.1a.69.69,0,0,0-.09.51c.18,1.07,2.11,1.12,5.56,2.62a6.43,6.43,0,0,0,3.07.82c.27,0,1.57-.09,1.76-.72.15-.47-.39-1-.59-1.22C41.84,30.91,41.14,30.63,39.22,30.23Z"/><path class="cls-1" d="M31.21,28c-.2-.05-.23-.2-.42-.22a.49.49,0,0,0-.47.23c-.11.2.13.35.12.79,0,.26-.08.27-.07.52a1.41,1.41,0,0,0,.22.67,1.58,1.58,0,0,0,.78.57,3.25,3.25,0,0,0,1.82.06c.63-.11.75-.25.79-.32.24-.37-.11-1-.18-1.1a3.24,3.24,0,0,0-.94-.85c-.75-.54-1-.53-1.08-.51C31.54,27.85,31.44,28,31.21,28Z"/><path class="cls-1" d="M38.6,27.15c-2.66-.59-2.15-.23-4.11-.7-1.06-.25-2.06-.56-2.39-.13a.67.67,0,0,0-.09.5c.17,1.08,2.09,1.16,5.52,2.71a6.29,6.29,0,0,0,3.06.86c.27,0,1.57-.06,1.77-.69.15-.46-.38-1-.58-1.22C41.2,27.87,40.51,27.59,38.6,27.15Z"/><path class="cls-1" d="M30.62,24.78c-.2-.05-.23-.2-.42-.22a.48.48,0,0,0-.47.22c-.11.2.12.36.11.8,0,.25-.08.26-.08.51a1.42,1.42,0,0,0,.21.68,1.52,1.52,0,0,0,.77.57,3.09,3.09,0,0,0,1.82.09c.63-.09.75-.23.8-.3.24-.37-.1-1-.17-1.1a3,3,0,0,0-.93-.87c-.74-.55-1-.54-1.07-.53C31,24.66,30.84,24.84,30.62,24.78Z"/><path class="cls-1" d="M26.47,33.83h2.24V29.39h-.16a2.13,2.13,0,0,0-.92-.2,2.23,2.23,0,0,0-1,.2h-.17Z"/><rect class="cls-1" x="27.36" y="29.04" width="1.16" height="0.16" transform="translate(-12.41 28.29) rotate(-45)"/><ellipse class="cls-1" cx="51.62" cy="43" rx="7" ry="1.93"/><ellipse class="cls-1" cx="60.57" cy="32.51" rx="6.59" ry="2.42" transform="translate(15.5 84.43) rotate(-77.26)"/><rect class="cls-1" x="57.94" y="38.24" width="1.49" height="4.76" transform="translate(20.21 -19.49) rotate(22.68)"/><rect class="cls-1" x="51.01" y="43.9" width="1.91" height="8.9"/><rect class="cls-1" x="46.51" y="52.8" width="10.64" height="1.12"/><circle class="cls-1" cx="57.15" cy="54.96" r="1.6"/><circle class="cls-1" cx="46.51" cy="54.96" r="1.6"/><rect class="cls-1" x="51.01" y="53.36" width="1.91" height="3.2" rx="0.95"/><path class="cls-3" d="M34.28,31.05l-12.07.19q-.64-5.89-1.3-11.8l10.32-5.37Z"/><rect class="cls-1" x="17.3" y="33.96" width="25.08" height="2.34"/><rect class="cls-1" x="24.07" y="35.13" width="2.76" height="22.99"/><rect class="cls-1" x="20.36" y="19.46" width="1.41" height="12.39" transform="translate(-2.82 2.6) rotate(-6.63)"/><rect class="cls-1" x="20.05" y="27.83" width="1.19" height="6.53" transform="translate(6.08 -3.27) rotate(10.61)"/><rect class="cls-1" x="21.34" y="33.34" width="4.81" height="0.62"/><rect class="cls-1" x="20.39" y="35.3" width="0.26" height="21.82" transform="translate(-6.94 3.76) rotate(-8.96)"/><rect class="cls-1" x="20.39" y="35.11" width="0.26" height="21.82" transform="translate(-4.28 2.16) rotate(-5.45)"/><rect class="cls-1" x="18.55" y="56.52" width="4.27" height="1.6" rx="0.8"/></svg>