<svg id="Layer_1" data-name="Layer 1" xmlns="http://www.w3.org/2000/svg" viewBox="0 0 61.2 79.2"><defs><style>.cls-1{fill:#fff;}</style></defs><title>TimelineFigures</title><path class="cls-1" d="M39.54,33c2.3,3.58,2.12,5.75,3.33,5.87s2.69-2,2.91-3.87a5.56,5.56,0,0,0-1.57-4.43c-1-.93-2.08-1.19-2.14-2.1,0-.67.51-1,.31-1.52-.26-.69-1.59-.77-1.86-.78-1.05-.05-1.47.62-2,.33s-.51-.88-.85-.87-.45.4-.5.5a1.62,1.62,0,0,0,.17,1.56c.09,0-.22-1.33,0-1.4s.42.31.44.67c0,.62-.8.83-1.07,1.38C36.18,29.34,38.16,30.82,39.54,33Z"/><path class="cls-1" d="M29.21,29.43c.11.15.32,0,.66.18a1.28,1.28,0,0,1,.29.25,1.24,1.24,0,0,1,.16.4c.1.27.23.29.47.6s.21.54.38.69c.39.34,1.21,0,1.38-.09.58-.25,1-.78,1.86-1.83a3.91,3.91,0,0,0,1-1.68,3.08,3.08,0,0,0,0-.95,3.31,3.31,0,0,1,.17-.38c.2-.36.32-.41.3-.56s-.4-.29-.41-.53.13-.18.14-.37-.08-.21-.16-.45,0-.4-.07-.61-.32-.17-.47-.42,0-.39-.19-.58-.26-.11-.37-.27,0-.42-.1-.51-.27.13-.56.1c-.09,0-.12,0-.57-.35a2.29,2.29,0,0,0-.47-.29c-.29-.07-.37.12-.7.07s-.37-.25-.58-.21-.21.36-.54.55-.33,0-.61.18-.22.27-.48.44-.63.1-.76.31,0,.24,0,.52a1.85,1.85,0,0,1-.4.58c-.29.36-.34.37-.37.5s.12.32.07.6-.25.3-.26.53a.77.77,0,0,0,.38.58c.22.13.31.05.42.17s0,.5.07,1c.07.29.2.33.3.49a2.05,2.05,0,0,1,.08.19,1.3,1.3,0,0,1,0,.52C29.19,29.36,29.17,29.38,29.21,29.43Z"/><path class="cls-1" d="M36.26,29.62c.42.49-.24,2-1.31,2.7-.14.09-.58.38-.85.22s-.09-.31-.33-.56-.4-.17-.57-.42-.08-.23-.21-.36-.26-.13-.31-.21.7-.79,1.4-1.64,1-1.57,1.16-1.5.06.13.23.66a2,2,0,0,0,.39.81C36.05,29.53,36.15,29.49,36.26,29.62Z"/><path class="cls-1" d="M33.49,36.76a6.55,6.55,0,0,0,.68,1.55c1.64,2.8,1.4,3.91,2.51,4.66,1.6,1.08,4.7.54,5.72-1.09.71-1.14-.3-1.73-1.2-7.05a6.46,6.46,0,0,0-1-3.18,5.64,5.64,0,0,0-3.41-2,2.23,2.23,0,0,0-1.64,0c-.51.3-.51.77-1.07,2.44-.61,1.84-.85,2-.87,2.88A6.12,6.12,0,0,0,33.49,36.76Z"/><path class="cls-1" d="M42.34,40.27A3.9,3.9,0,0,0,39.23,39a3.65,3.65,0,0,0-2.77,1c-.45.53-.35.9-.56,3.55-.2,2.42-.36,3,0,4A3.65,3.65,0,0,0,37,49.22,3.77,3.77,0,0,0,39.9,50,3.29,3.29,0,0,0,42.39,48c.25-.66-.06-.82,0-2.26.06-1.25.3-1.34.38-2.49S42.94,41.08,42.34,40.27Z"/><path class="cls-1" d="M35.6,50.52c0,1,0,3.26.3,6.3.41,4.93.86,5.65,1.45,5.89a2.4,2.4,0,0,0,2.32-.63c1-1,.62-2.21,1-7.08a12.09,12.09,0,0,1,.5-3.13c.6-1.74,1.23-1.79,1.49-3.22A5.3,5.3,0,0,0,42,44.8a4.67,4.67,0,0,0-.91-1c-.56-.49-2-1.79-3.63-1.32A2.66,2.66,0,0,0,35.77,44a3.15,3.15,0,0,0-.1,1.82C35.89,47,35.56,46.35,35.6,50.52Z"/><path class="cls-1" d="M42,67.34c-.22-3.19-.39-3.88-.83-4.66-.21-.38-1.34-2.39-3.09-2.43a1.79,1.79,0,0,0-1.45.53c-.53.75.25,2,1,3.64,1,2.27.37,1.73,1.83,5.79,1.56,4.37,1.37,4.87,1.17,5.18a5,5,0,0,1-1.71,1.32c-.7.36-1.25.46-1.25.7s.67.49,1,.57a3.76,3.76,0,0,0,1.72-.13c.21-.06.5-.16,1.06-.36,1.27-.46,1.9-.7,2-.92.23-.5-.31-1.16-.59-1.58C42,73.74,42.37,73,42,67.34Z"/><path class="cls-1" d="M40.07,66.81c.55-3.15.55-3.86.31-4.72-.12-.41-.74-2.64-2.42-3.1a1.84,1.84,0,0,0-1.54.17c-.69.6-.22,2,.11,3.77.44,2.45-.06,1.77.38,6.06.47,4.62.16,5.06-.1,5.31a5,5,0,0,1-2,.87c-.77.18-1.32.14-1.38.38s.53.64.88.81a3.69,3.69,0,0,0,1.7.28c.22,0,.52,0,1.12-.09,1.34-.15,2-.22,2.16-.41.34-.43,0-1.21-.2-1.68C38.59,73,39.09,72.42,40.07,66.81Z"/><path class="cls-1" d="M32.83,34.92a12.44,12.44,0,0,0-.53,1.53c-.17.45-.31.77-.37.9a11.23,11.23,0,0,0-.9,3.31c-.06.73-.1,1.3.22,1.49s1.14-.2,1.54-.56a7.6,7.6,0,0,0,1.56-3,4.62,4.62,0,0,1,.45-.89c.4-.65.66-.73.85-1.07A2,2,0,0,0,35,34.07,1.89,1.89,0,0,0,32.83,34.92Z"/><path class="cls-1" d="M28.81,42.17c-2,1.81-1.43,1.61-2.95,2.94-.82.71-1.65,1.35-1.49,1.86a.71.71,0,0,0,.36.37c1,.49,2.15-1,5.4-2.93a6.23,6.23,0,0,0,2.48-2c.14-.22.85-1.31.46-1.84s-1-.28-1.33-.24C30.91,40.46,30.28,40.86,28.81,42.17Z"/><path class="cls-1" d="M22.25,47.29c-.15.13-.29.07-.42.21a.48.48,0,0,0-.09.51c.1.21.36.11.71.38s.17.22.38.36a1.41,1.41,0,0,0,.67.22,1.62,1.62,0,0,0,.92-.29,3.22,3.22,0,0,0,1.12-1.43c.29-.58.25-.75.22-.83-.16-.42-.85-.49-1-.5a2.91,2.91,0,0,0-1.24.26c-.88.28-1,.48-1.06.56S22.43,47.14,22.25,47.29Z"/><path class="cls-1" d="M36.3,32.1a12.85,12.85,0,0,0-1,1.25c-.32.36-.57.6-.67.71a11.35,11.35,0,0,0-2,2.76c-.31.67-.55,1.18-.32,1.48s1.14.22,1.64,0a7.67,7.67,0,0,0,2.52-2.22,5.06,5.06,0,0,1,.73-.68c.61-.46.88-.44,1.18-.69a2,2,0,0,0,.31-2.65A1.88,1.88,0,0,0,36.3,32.1Z"/><path class="cls-1" d="M31.67,34.18c-1.86-2-1.65-1.39-3-2.88-.73-.8-1.39-1.62-1.9-1.44a.65.65,0,0,0-.36.36c-.47,1,1.09,2.13,3.06,5.34A6.31,6.31,0,0,0,31.51,38c.23.14,1.34.83,1.86.42s.25-1.06.2-1.34C33.43,36.23,33,35.61,31.67,34.18Z"/><path class="cls-1" d="M26.56,28c-.11-.18,0-.3-.14-.46a.51.51,0,0,0-.49-.18c-.22.07-.17.34-.49.64s-.24.13-.42.31a1.24,1.24,0,0,0-.33.62,1.54,1.54,0,0,0,.13,1A3.14,3.14,0,0,0,26,31.26c.51.38.69.37.78.35.43-.08.62-.74.66-.89a3,3,0,0,0,0-1.27c-.13-.91-.3-1.07-.37-1.13S26.68,28.22,26.56,28Z"/><rect class="cls-1" x="16.76" y="5.25" width="3.17" height="71.93"/><rect class="cls-1" x="20.35" y="47.57" width="2.51" height="1.16"/><rect class="cls-1" x="13.82" y="47.57" width="2.51" height="1.16"/><path class="cls-1" d="M26,28.56l.24.26,1.18-1.08.37.4.21-.2-.37-.39.4-.37-.23-.26-.41.37L27,26.87l-.2.19.38.42Z"/></svg>