<svg id="Layer_1" data-name="Layer 1" xmlns="http://www.w3.org/2000/svg" xmlns:xlink="http://www.w3.org/1999/xlink" viewBox="0 0 79.2 61.2"><defs><style>.cls-1{fill:#fff;}.cls-2{opacity:0.42;fill:url(#linear-gradient);}</style><linearGradient id="linear-gradient" x1="19.85" y1="96.68" x2="26.5" y2="96.68" gradientTransform="matrix(0.46, -0.89, 1.09, 0.56, -82.54, -1.33)" gradientUnits="userSpaceOnUse"><stop offset="0" stop-color="#fff"/><stop offset="0.82" stop-color="#fff" stop-opacity="0"/></linearGradient></defs><title>TimelineFigures</title><path class="cls-1" d="M36,23.09c.15.1.3-.1.68,0a.85.85,0,0,1,.35.14,1.1,1.1,0,0,1,.28.33c.18.23.31.2.64.43s.36.44.58.52c.47.2,1.14-.39,1.28-.51A5.72,5.72,0,0,0,41,21.63a3.73,3.73,0,0,0,.4-1.9,3,3,0,0,0-.27-.91,2.51,2.51,0,0,1,0-.41c.07-.41.17-.49.11-.63s-.48-.14-.56-.37.06-.21,0-.4-.15-.17-.29-.37-.1-.39-.27-.56-.35-.06-.58-.25-.14-.36-.36-.5-.28,0-.43-.13-.12-.41-.26-.45-.22.21-.5.27c-.09,0-.13,0-.65-.15a2,2,0,0,0-.54-.13c-.3,0-.32.23-.64.29s-.44-.12-.61,0-.09.4-.35.69-.31.13-.52.36-.12.33-.32.57-.56.29-.62.54.12.21.13.5a1.74,1.74,0,0,1-.19.68c-.16.43-.21.46-.2.59s.22.27.26.54-.14.37-.08.59a.77.77,0,0,0,.54.43c.25.06.32-.05.46,0s.12.49.37.9c.16.25.29.25.43.37a.87.87,0,0,1,.14.16,1.17,1.17,0,0,1,.18.48C35.92,23,35.91,23.05,36,23.09Z"/><path class="cls-1" d="M42.71,21c.55.34.41,2-.39,3-.11.13-.44.54-.74.47s-.19-.26-.5-.43-.43,0-.66-.21-.15-.2-.32-.28-.29,0-.35-.1.4-1,.8-2,.41-1.8.63-1.8.1.11.43.56.52.59.62.64C42.48,21,42.56,21,42.71,21Z"/><path class="cls-1" d="M39.84,28.23a6.44,6.44,0,0,0,.62,1.57c1.53,2.86,1.25,4,2.33,4.76,1.55,1.14,4.68.72,5.75-.87.75-1.12-.23-1.74-.92-7.09a6.59,6.59,0,0,0-.86-3.22,5.64,5.64,0,0,0-3.33-2.14,2.22,2.22,0,0,0-1.64,0c-.53.28-.55.75-1.16,2.4-.68,1.81-.93,2-1,2.85A5.75,5.75,0,0,0,39.84,28.23Z"/><path class="cls-1" d="M48.44,32.45a3.93,3.93,0,0,0-3.11-1.3,3.62,3.62,0,0,0-2.77,1c-.46.53-.35.89-.56,3.54-.2,2.42-.36,3,0,4a3.58,3.58,0,0,0,1.12,1.68,3.68,3.68,0,0,0,2.88.73,3.29,3.29,0,0,0,2.49-1.9c.24-.67-.06-.82,0-2.27.06-1.24.3-1.34.37-2.48S49,33.26,48.44,32.45Z"/><path class="cls-1" d="M39.76,25.37a11.82,11.82,0,0,0-1.31,1c-.39.27-.69.45-.81.53A11.22,11.22,0,0,0,35,29.08c-.47.58-.82,1-.67,1.36s1.06.49,1.59.41a7.66,7.66,0,0,0,3-1.57,5.34,5.34,0,0,1,.87-.48c.71-.31,1-.22,1.31-.4A2,2,0,0,0,42,25.9,1.87,1.87,0,0,0,39.76,25.37Z"/><path class="cls-1" d="M35.66,26.16c-.82-2.59-.88-2-1.46-3.9-.31-1-.55-2.06-1.08-2.13a.65.65,0,0,0-.48.18c-.85.68,0,2.39.44,6.13a6.16,6.16,0,0,0,.79,3.07c.14.23.84,1.33,1.49,1.19.48-.1.69-.85.76-1.12C36.35,28.77,36.26,28,35.66,26.16Z"/><path class="cls-1" d="M35,19.35c.06-.2.21-.21.24-.4a.5.5,0,0,0-.19-.49c-.2-.12-.37.1-.81.07-.25,0-.26-.09-.51-.1a1.42,1.42,0,0,0-.68.17,1.61,1.61,0,0,0-.62.74,3.21,3.21,0,0,0-.18,1.81c.07.64.2.76.27.81.35.27,1,0,1.1-.11a3,3,0,0,0,.91-.88c.59-.71.6-.95.59-1S35,19.57,35,19.35Z"/><path class="cls-1" d="M40.29,32.45c-2.32,1.43-1.7,1.34-3.43,2.38-.93.55-1.86,1-1.8,1.57a.65.65,0,0,0,.29.42c.87.66,2.31-.64,5.84-1.93A6.37,6.37,0,0,0,44,33.37c.18-.2,1.07-1.14.78-1.73s-1-.47-1.27-.47C42.65,31.14,42,31.42,40.29,32.45Z"/><path class="cls-1" d="M32.93,36.34c-.18.1-.3,0-.45.13a.49.49,0,0,0-.19.49c.07.22.34.17.64.49s.13.25.31.42a1.38,1.38,0,0,0,.62.34,1.5,1.5,0,0,0,1-.13,3.09,3.09,0,0,0,1.36-1.2c.39-.52.37-.7.36-.78-.09-.44-.75-.63-.89-.67a3.23,3.23,0,0,0-1.27,0c-.92.13-1.08.3-1.14.37S33.13,36.22,32.93,36.34Z"/><rect class="cls-1" x="29.75" y="35.8" width="5.59" height="0.74" transform="translate(21.84 -11.3) rotate(29.27)"/><path class="cls-2" d="M33.34,36l6.75-4L29.28,26.46c.41,2.71.82,5.41,1.24,8.12Z"/><path class="cls-1" d="M45.92,24.84c2.3,3.58,2.12,5.75,3.32,5.87s2.7-2,2.92-3.88a5.58,5.58,0,0,0-1.57-4.42c-1-.93-2.08-1.19-2.15-2.11,0-.66.51-1,.32-1.51-.27-.69-1.59-.78-1.86-.79-1,0-1.47.63-2,.34s-.51-.88-.85-.87-.45.39-.5.5a1.62,1.62,0,0,0,.17,1.56c.09,0-.23-1.33,0-1.4s.43.3.45.67c0,.61-.8.83-1.07,1.38C42.56,21.21,44.54,22.7,45.92,24.84Z"/><path class="cls-1" d="M38.54,39.57c-.53.83-1.75,2.75-3.22,5.42-2.38,4.34-2.4,5.19-2,5.72a2.39,2.39,0,0,0,2.28.75c1.39-.23,1.74-1.5,4.77-5.33a12.18,12.18,0,0,1,2.14-2.33c1.47-1.12,2-.82,3-1.86A5.41,5.41,0,0,0,47,38.32,4.37,4.37,0,0,0,46.81,37c-.19-.71-.73-2.62-2.3-3.1a2.67,2.67,0,0,0-2.22.32,3.12,3.12,0,0,0-1.08,1.47C40.73,36.79,40.81,36.08,38.54,39.57Z"/><path class="cls-1" d="M41.85,46.38c-3.2,0-3.9.18-4.71.57-.38.19-2.45,1.21-2.59,3A1.78,1.78,0,0,0,35,51.38c.72.57,2-.14,3.69-.8,2.32-.89,1.75-.27,5.88-1.5,4.45-1.32,4.94-1.1,5.23-.89A5,5,0,0,1,51,50c.32.72.39,1.27.63,1.29s.53-.65.63-1a3.67,3.67,0,0,0,0-1.72c0-.22-.13-.51-.3-1.08-.39-1.29-.59-1.94-.8-2.05-.49-.26-1.18.24-1.61.5C48.24,46.68,47.54,46.3,41.85,46.38Z"/><path class="cls-1" d="M41.69,42.23c.1,1,.36,3.24.91,6.24.88,4.87,1.4,5.54,2,5.73a2.41,2.41,0,0,0,2.24-.86c.94-1.06.41-2.26.35-7.14A11.61,11.61,0,0,1,47.4,43c.43-1.8,1.05-1.91,1.18-3.36a5.39,5.39,0,0,0-1.1-3.76,4.73,4.73,0,0,0-1-.91c-.6-.43-2.22-1.57-3.73-.95a2.67,2.67,0,0,0-1.53,1.64,3,3,0,0,0,.09,1.82C41.63,38.69,41.24,38.09,41.69,42.23Z"/><path class="cls-1" d="M51.58,49c-3.2,0-3.9.12-4.71.5-.39.19-2.47,1.18-2.63,2.92a1.78,1.78,0,0,0,.43,1.49c.71.57,2-.12,3.69-.76,2.33-.86,1.75-.24,5.91-1.41,4.46-1.26,4.95-1,5.24-.82a5.09,5.09,0,0,1,1.2,1.8c.31.73.37,1.28.61,1.3s.54-.64.65-1a3.69,3.69,0,0,0,0-1.72c0-.22-.12-.51-.28-1.08-.37-1.3-.56-1.95-.77-2.06-.49-.27-1.19.22-1.62.48C58,49.33,57.28,49,51.58,49Z"/></svg>