<svg id="Layer_1" data-name="Layer 1" xmlns="http://www.w3.org/2000/svg" xmlns:xlink="http://www.w3.org/1999/xlink" viewBox="0 0 79.2 61.2"><defs><style>.cls-1{fill:#fff;}.cls-2{opacity:0.42;fill:url(#linear-gradient);}.cls-3{opacity:0.32;fill:url(#linear-gradient-2);}</style><linearGradient id="linear-gradient" x1="81.67" y1="231.48" x2="88.32" y2="231.48" gradientTransform="matrix(0.75, -0.66, 0.8, 0.92, -208.39, -124.87)" gradientUnits="userSpaceOnUse"><stop offset="0" stop-color="#fff"/><stop offset="0.82" stop-color="#fff" stop-opacity="0"/></linearGradient><linearGradient id="linear-gradient-2" x1="88.18" y1="114.3" x2="99.07" y2="114.3" gradientTransform="translate(-104.9 -21.76) rotate(-21.35)" xlink:href="#linear-gradient"/></defs><title>TimelineFigures</title><path class="cls-1" d="M44.66,26.4c.11.15.32,0,.65.21a.74.74,0,0,1,.28.25,1.14,1.14,0,0,1,.15.41c.09.27.22.3.44.62s.19.54.36.7c.38.35,1.21,0,1.38,0,.59-.23,1-.74,1.93-1.76a3.81,3.81,0,0,0,1-1.65,2.66,2.66,0,0,0,.06-.94,3.32,3.32,0,0,1,.19-.37c.21-.36.33-.4.32-.55s-.4-.3-.39-.55.13-.17.15-.37-.07-.21-.14-.45.05-.39,0-.61-.31-.18-.45-.44,0-.39-.17-.59-.26-.11-.35-.28,0-.42-.08-.51-.29.12-.57.07c-.09,0-.12,0-.56-.36a2.48,2.48,0,0,0-.45-.31c-.29-.08-.38.1-.71,0s-.36-.26-.57-.23-.22.35-.56.53-.33,0-.62.15-.23.26-.5.42-.63.08-.76.28,0,.25-.06.52a1.73,1.73,0,0,1-.42.57c-.3.34-.35.35-.39.48s.11.33,0,.6-.26.29-.28.53a.77.77,0,0,0,.36.59c.21.14.31.06.41.18s-.06.5,0,1c.06.29.18.33.27.5a.48.48,0,0,1,.07.2,1.1,1.1,0,0,1,0,.51C44.65,26.33,44.63,26.35,44.66,26.4Z"/><path class="cls-1" d="M51.7,26.86c.4.51-.32,2-1.41,2.65-.14.08-.6.35-.86.18s-.08-.31-.31-.57-.39-.18-.55-.44-.07-.23-.2-.37-.25-.14-.29-.22c-.13-.24.72-.76,1.45-1.58s1-1.54,1.22-1.46,0,.14.2.67a2,2,0,0,0,.36.82C51.49,26.76,51.59,26.73,51.7,26.86Z"/><path class="cls-1" d="M48.66,33.89a6.83,6.83,0,0,0,.62,1.57c1.53,2.86,1.25,4,2.33,4.76,1.55,1.14,4.68.72,5.75-.87.76-1.12-.23-1.74-.92-7.09A6.46,6.46,0,0,0,55.58,29a5.54,5.54,0,0,0-3.33-2.14,2.22,2.22,0,0,0-1.64,0c-.53.27-.54.74-1.16,2.39-.68,1.82-.93,2-1,2.85A5.87,5.87,0,0,0,48.66,33.89Z"/><path class="cls-1" d="M57.26,38.11a3.9,3.9,0,0,0-3.11-1.3,3.65,3.65,0,0,0-2.77,1c-.45.54-.35.9-.56,3.55-.2,2.42-.36,3,0,4a3.65,3.65,0,0,0,1.12,1.69,3.73,3.73,0,0,0,2.88.73,3.3,3.3,0,0,0,2.49-1.9c.24-.67-.06-.82,0-2.27.06-1.25.3-1.34.37-2.49S57.86,38.92,57.26,38.11Z"/><path class="cls-1" d="M50.57,40.17c-.94-.28-3.14-.9-6.12-1.54-4.84-1-5.66-.81-6.06-.32a2.37,2.37,0,0,0-.06,2.4C39,42,40.26,42,44.8,43.76a12.34,12.34,0,0,1,2.85,1.38c1.49,1.08,1.36,1.7,2.65,2.37a5.39,5.39,0,0,0,3.9.42,4.88,4.88,0,0,0,1.21-.58c.63-.4,2.31-1.45,2.31-3.09a2.63,2.63,0,0,0-.94-2,3.12,3.12,0,0,0-1.71-.62C53.86,41.46,54.57,41.33,50.57,40.17Z"/><path class="cls-1" d="M42.24,46.41c.49-3.17.48-3.88.22-4.74-.12-.41-.78-2.62-2.48-3a1.77,1.77,0,0,0-1.53.19c-.68.62-.19,2,.18,3.77.49,2.44,0,1.77.5,6,.56,4.61.26,5.06,0,5.31a5,5,0,0,1-2,.91c-.77.2-1.32.17-1.37.41s.54.63.89.79a3.72,3.72,0,0,0,1.71.25c.22,0,.52-.05,1.11-.12,1.34-.17,2-.26,2.16-.45.33-.44-.05-1.2-.23-1.67C40.89,52.66,41.38,52,42.24,46.41Z"/><path class="cls-1" d="M48.58,31c-.34.16-.4.34-1.31,1-.39.28-.68.46-.81.54a11.22,11.22,0,0,0-2.61,2.21c-.46.57-.82,1-.67,1.36s1.07.48,1.6.41a7.8,7.8,0,0,0,3-1.57,4.32,4.32,0,0,1,.87-.49c.7-.3,1-.22,1.31-.4a2,2,0,0,0,.92-2.5A1.89,1.89,0,0,0,48.58,31Z"/><path class="cls-1" d="M44.49,31.82c-.82-2.6-.88-2-1.47-3.9-.31-1-.54-2.07-1.08-2.13a.66.66,0,0,0-.48.17c-.85.69,0,2.4.44,6.14a6.38,6.38,0,0,0,.79,3.07c.15.23.85,1.32,1.49,1.19.48-.11.69-.85.77-1.12C45.18,34.43,45.08,33.69,44.49,31.82Z"/><path class="cls-1" d="M43.84,25c.06-.2.21-.22.25-.41a.48.48,0,0,0-.2-.48c-.2-.12-.36.1-.8.07-.26,0-.26-.1-.51-.11a1.31,1.31,0,0,0-.69.18,1.52,1.52,0,0,0-.61.74,3.11,3.11,0,0,0-.18,1.81c.06.64.19.76.26.81.36.27,1,0,1.11-.11a3.24,3.24,0,0,0,.91-.88c.59-.72.59-.95.58-1S43.78,25.23,43.84,25Z"/><path class="cls-1" d="M48,35.78c-2.68.47-2.06.61-4.06.94-1.07.17-2.11.27-2.25.79a.65.65,0,0,0,.11.5c.57.93,2.38.27,6.14.37A6.29,6.29,0,0,0,51.09,38c.24-.11,1.42-.66,1.37-1.32,0-.49-.75-.8-1-.91C50.68,35.44,49.94,35.44,48,35.78Z"/><path class="cls-1" d="M39.73,36.67c-.2,0-.28-.1-.47-.05a.48.48,0,0,0-.35.39c0,.23.25.28.41.69.09.24,0,.28.12.51a1.3,1.3,0,0,0,.46.54,1.6,1.6,0,0,0,.93.24,3.2,3.2,0,0,0,1.71-.62c.55-.34.6-.51.62-.59.08-.44-.46-.86-.58-1a2.89,2.89,0,0,0-1.19-.44c-.9-.22-1.11-.13-1.19-.08S40,36.63,39.73,36.67Z"/><path class="cls-1" d="M49.4,45.59c-.45.86-1.49,2.89-2.7,5.69-2,4.54-1.91,5.39-1.51,5.88a2.39,2.39,0,0,0,2.34.54c1.37-.36,1.6-1.66,4.26-5.75a11.9,11.9,0,0,1,1.92-2.52c1.35-1.25,1.93-1,2.84-2.13a5.38,5.38,0,0,0,1.18-3.74,4.7,4.7,0,0,0-.33-1.31c-.26-.69-1-2.55-2.58-2.87a2.63,2.63,0,0,0-2.18.52,3.16,3.16,0,0,0-.94,1.56C51.32,42.61,51.34,41.89,49.4,45.59Z"/><path class="cls-1" d="M52.78,52.25c-3.19.22-3.88.39-4.67.82-.37.21-2.38,1.34-2.43,3.09a1.81,1.81,0,0,0,.53,1.45c.75.53,2-.25,3.64-1,2.27-1,1.73-.36,5.8-1.8,4.37-1.56,4.87-1.36,5.17-1.17a5,5,0,0,1,1.32,1.72c.36.7.45,1.25.7,1.25s.5-.67.57-1a3.48,3.48,0,0,0-.13-1.71,10.77,10.77,0,0,0-.35-1.07c-.46-1.27-.69-1.9-.91-2-.5-.23-1.17.31-1.58.59C59.18,52.21,58.46,51.87,52.78,52.25Z"/><rect class="cls-1" x="36.64" y="36" width="5.59" height="0.74" transform="translate(42.88 -17.17) rotate(51)"/><path class="cls-2" d="M40.22,36.54,48,35.31l-8-9.17c-.61,2.67-1.23,5.33-1.85,8Z"/><path class="cls-1" d="M20.17,56.4l6.93-.32-.3.7a15,15,0,0,1-7,.14,37,37,0,0,1-2-9.65l.84-1.63Z"/><path class="cls-3" d="M29.4,55.46l-9.24.47q-.66-4.5-1.31-9l7.76-4.4Z"/></svg>