<svg id="Layer_1" data-name="Layer 1" xmlns="http://www.w3.org/2000/svg" xmlns:xlink="http://www.w3.org/1999/xlink" viewBox="0 0 79.2 61.2"><defs><style>.cls-1{fill:#fff;}.cls-2{opacity:0.42;fill:url(#linear-gradient);}.cls-3{opacity:0.32;fill:url(#linear-gradient-2);}</style><linearGradient id="linear-gradient" x1="-71.91" y1="119.35" x2="-65.26" y2="119.35" gradientTransform="matrix(0.75, -0.66, 0.8, 0.92, 5.53, -121.04)" gradientUnits="userSpaceOnUse"><stop offset="0" stop-color="#fff"/><stop offset="0.82" stop-color="#fff" stop-opacity="0"/></linearGradient><linearGradient id="linear-gradient-2" x1="-5.46" y1="74.85" x2="5.43" y2="74.85" gradientTransform="translate(-9.36 -26.2) rotate(-21.35)" xlink:href="#linear-gradient"/></defs><title>TimelineFigures</title><path class="cls-1" d="M52.74,27.58c.1.15.31,0,.65.21a.8.8,0,0,1,.28.25,1.05,1.05,0,0,1,.14.41c.09.27.22.3.45.62s.19.54.35.7c.38.35,1.22,0,1.39,0,.58-.23,1-.75,1.92-1.77a3.86,3.86,0,0,0,1-1.64,3,3,0,0,0,.06-.95,2.35,2.35,0,0,1,.18-.36c.21-.36.33-.41.32-.55s-.39-.31-.39-.55.14-.17.16-.37-.08-.21-.14-.45,0-.4-.06-.61-.3-.18-.45-.45,0-.38-.16-.58-.26-.12-.36-.28,0-.42-.08-.51-.28.11-.56.07c-.09,0-.13,0-.57-.36s-.4-.3-.45-.31c-.29-.09-.38.09-.71,0s-.36-.27-.56-.23-.23.34-.57.52-.33,0-.61.16-.23.26-.5.42-.63.07-.77.28,0,.25,0,.52a1.9,1.9,0,0,1-.42.57c-.3.34-.36.35-.39.48s.1.33,0,.6-.27.29-.28.52a.74.74,0,0,0,.35.59c.21.15.31.07.42.19s-.06.5,0,1c.06.29.18.33.28.5a.64.64,0,0,1,.07.19,1.3,1.3,0,0,1,0,.52C52.72,27.5,52.7,27.53,52.74,27.58Z"/><path class="cls-1" d="M59.77,28c.4.5-.31,2-1.4,2.65-.15.08-.61.35-.86.18s-.09-.31-.32-.57-.39-.18-.55-.44-.07-.23-.19-.37-.26-.14-.3-.22c-.12-.24.72-.76,1.45-1.58s1-1.54,1.23-1.47.05.14.2.68a2.13,2.13,0,0,0,.35.82C59.56,27.93,59.67,27.9,59.77,28Z"/><path class="cls-1" d="M56.74,35.06a6.34,6.34,0,0,0,.62,1.58c1.53,2.86,1.25,4,2.32,4.76,1.56,1.14,4.68.71,5.76-.87.75-1.12-.23-1.75-.93-7.1a6.52,6.52,0,0,0-.85-3.22,5.67,5.67,0,0,0-3.33-2.14,2.24,2.24,0,0,0-1.65,0c-.52.27-.54.74-1.16,2.39-.68,1.81-.92,2-1,2.85A5.75,5.75,0,0,0,56.74,35.06Z"/><path class="cls-1" d="M65.34,39.28A3.94,3.94,0,0,0,62.22,38a3.66,3.66,0,0,0-2.77,1c-.45.53-.34.89-.56,3.55-.19,2.42-.35,3,0,4A3.68,3.68,0,0,0,60,48.24a3.75,3.75,0,0,0,2.87.73,3.33,3.33,0,0,0,2.5-1.91c.24-.66-.07-.82,0-2.26.06-1.25.3-1.35.38-2.49S65.93,40.1,65.34,39.28Z"/><path class="cls-1" d="M58.64,41.34c-.94-.27-3.14-.89-6.12-1.53-4.83-1-5.65-.81-6.06-.32a2.39,2.39,0,0,0-.06,2.4c.62,1.27,1.93,1.24,6.47,3a11.91,11.91,0,0,1,2.85,1.38c1.49,1.08,1.36,1.69,2.65,2.36a5.29,5.29,0,0,0,3.9.42,4.85,4.85,0,0,0,1.22-.57c.62-.4,2.3-1.46,2.31-3.1a2.7,2.7,0,0,0-.94-2,3.12,3.12,0,0,0-1.72-.62C61.93,42.64,62.64,42.51,58.64,41.34Z"/><path class="cls-1" d="M44.57,46.32c2.7-1.73,3.22-2.21,3.7-3,.22-.36,1.45-2.32.64-3.87-.09-.16-.49-.94-1.16-1-.91-.1-1.61,1.17-2.71,2.63-1.5,2-1.34,1.15-4.21,4.37-3.08,3.47-3.61,3.54-4,3.52a4.85,4.85,0,0,1-2-.87c-.66-.44-1-.88-1.22-.76s-.11.83,0,1.2A3.76,3.76,0,0,0,34.6,50c.15.16.38.36.83.76,1,.89,1.52,1.33,1.76,1.32.55,0,.87-.84,1.1-1.28C39,49.44,39.78,49.39,44.57,46.32Z"/><path class="cls-1" d="M56.65,32.2a15.58,15.58,0,0,0-1.3,1c-.39.27-.69.46-.81.53a11.3,11.3,0,0,0-2.62,2.22c-.46.57-.81,1-.66,1.36s1.06.48,1.59.4a7.59,7.59,0,0,0,3-1.57,5.34,5.34,0,0,1,.87-.48c.7-.3,1-.22,1.31-.4a2,2,0,0,0,.92-2.5A1.89,1.89,0,0,0,56.65,32.2Z"/><path class="cls-1" d="M51.16,33.62c-2-1.89-1.71-1.31-3.15-2.74-.77-.76-1.46-1.55-2-1.35a.64.64,0,0,0-.34.38c-.42,1,1.18,2.08,3.3,5.18a6.2,6.2,0,0,0,2.16,2.33c.24.13,1.37.76,1.87.34s.21-1.08.15-1.35C53,35.59,52.57,35,51.16,33.62Z"/><path class="cls-1" d="M46.09,27.46c-.11-.17,0-.3-.14-.45a.5.5,0,0,0-.5-.17c-.22.08-.16.34-.47.66s-.24.13-.41.31a1.48,1.48,0,0,0-.32.64,1.63,1.63,0,0,0,.16.95,3.11,3.11,0,0,0,1.25,1.31c.52.38.7.36.79.34.43-.1.6-.77.64-.91A3.09,3.09,0,0,0,47,28.87c-.15-.91-.33-1.07-.4-1.12S46.22,27.66,46.09,27.46Z"/><path class="cls-1" d="M56.08,37c-2.68.47-2.07.61-4.06.94-1.07.17-2.12.27-2.26.79a.7.7,0,0,0,.12.5c.56.93,2.37.26,6.13.37a6.39,6.39,0,0,0,3.15-.38c.25-.12,1.43-.67,1.37-1.32,0-.49-.74-.8-1-.91C58.76,36.62,58,36.62,56.08,37Z"/><path class="cls-1" d="M47.8,37.85c-.2,0-.28-.1-.47-.05a.5.5,0,0,0-.35.39c0,.23.25.28.41.69.1.24,0,.28.13.51a1.37,1.37,0,0,0,.45.54,1.54,1.54,0,0,0,.94.23,3,3,0,0,0,1.7-.62c.55-.33.61-.5.62-.58.09-.44-.46-.86-.57-1a3.2,3.2,0,0,0-1.2-.43c-.89-.23-1.11-.13-1.19-.08S48,37.81,47.8,37.85Z"/><path class="cls-1" d="M57.55,43.08c-1,0-3.26.15-6.28.49-4.92.56-5.62,1-5.85,1.63a2.39,2.39,0,0,0,.7,2.3c1,1,2.23.56,7.11.82a12.32,12.32,0,0,1,3.14.4c1.76.55,1.83,1.18,3.27,1.4a5.43,5.43,0,0,0,3.83-.84,5.15,5.15,0,0,0,1-.94c.46-.57,1.72-2.11,1.2-3.67A2.67,2.67,0,0,0,64.1,43a3.12,3.12,0,0,0-1.82,0C61.09,43.25,61.72,42.91,57.55,43.08Z"/><path class="cls-1" d="M41.86,49.9c3.18-.4,3.86-.6,4.61-1.09.36-.22,2.31-1.47,2.25-3.21a1.78,1.78,0,0,0-.6-1.43c-.78-.48-2,.37-3.58,1.21-2.21,1.14-1.71.45-5.69,2.13-4.27,1.8-4.78,1.63-5.1,1.45a5.15,5.15,0,0,1-1.41-1.63c-.4-.69-.52-1.23-.77-1.22s-.46.7-.51,1.08a3.69,3.69,0,0,0,.22,1.71c.07.21.19.49.42,1,.53,1.24.79,1.86,1,2,.51.2,1.14-.37,1.55-.68C35.47,50.3,36.21,50.6,41.86,49.9Z"/><rect class="cls-1" x="44.72" y="37.17" width="5.59" height="0.74" transform="translate(46.79 -23.01) rotate(51)"/><path class="cls-2" d="M48.29,37.71l7.76-1.22-8-9.17-1.86,8Z"/><path class="cls-1" d="M14.13,49.32,21.06,49l-.3.7a15,15,0,0,1-7,.14,36.12,36.12,0,0,1-1.16-4.11,37,37,0,0,1-.79-5.54l.83-1.63Z"/><path class="cls-3" d="M23.37,48.38l-9.24.47-1.32-9,7.77-4.4Z"/><path class="cls-1" d="M49.59,28.08a2,2,0,0,1-.65,1.11c-.36.38-1,.89-1.17.75s-.06-.35,0-.61.19-.45.15-.64-.21-.31-.56-.56-.52-.37-.71-.35-.21.14-.52.3c-.15.07-.54.25-.68.13s-.1-.14.26-1,.48-1,.56-1.05a1.07,1.07,0,0,1,.85-.29c.5.11.39.78,1,1.12s1.08-.05,1.39.33A1.05,1.05,0,0,1,49.59,28.08Z"/></svg>