<svg id="Layer_1" data-name="Layer 1" xmlns="http://www.w3.org/2000/svg" xmlns:xlink="http://www.w3.org/1999/xlink" viewBox="0 0 61.2 79.2"><defs><style>.cls-1{fill:#fff;}.cls-2{opacity:0.32;fill:url(#linear-gradient);}</style><linearGradient id="linear-gradient" x1="71.95" y1="30.46" x2="82.84" y2="30.46" gradientTransform="translate(-57.98 65.57) rotate(-21.37)" gradientUnits="userSpaceOnUse"><stop offset="0" stop-color="#fff"/><stop offset="0.82" stop-color="#fff" stop-opacity="0"/></linearGradient></defs><title>TimelineFigures</title><path class="cls-1" d="M31.9,22.55c.11.15.32,0,.65.22a.87.87,0,0,1,.28.26,1.17,1.17,0,0,1,.13.4c.08.28.21.31.43.64s.18.54.34.7c.38.36,1.22.06,1.39,0,.59-.21,1.05-.72,2-1.72a4,4,0,0,0,1.08-1.62,2.81,2.81,0,0,0,.08-.95c0-.08.1-.21.19-.36.21-.35.34-.4.33-.54s-.39-.31-.38-.56.14-.17.17-.36-.07-.22-.13-.46,0-.39,0-.61-.31-.19-.45-.45,0-.39-.15-.59-.26-.12-.35-.29,0-.42-.07-.52-.28.12-.56.07c-.1,0-.13-.05-.56-.38s-.39-.3-.45-.32c-.28-.09-.38.09-.7,0s-.36-.27-.56-.24-.24.34-.58.51-.33,0-.62.14-.23.26-.51.41-.63.07-.77.27,0,.24-.07.52a1.76,1.76,0,0,1-.43.56c-.31.33-.36.34-.4.47s.1.33,0,.6-.27.28-.29.52a.75.75,0,0,0,.34.59c.21.16.31.08.41.2s-.07.5,0,1c0,.29.17.33.26.5a.8.8,0,0,1,.07.2,1.3,1.3,0,0,1,0,.52C31.89,22.47,31.87,22.49,31.9,22.55Z"/><path class="cls-1" d="M38.93,23.15c.39.52-.36,2-1.47,2.62-.14.08-.6.34-.86.17s-.07-.32-.3-.58-.39-.19-.54-.46-.07-.23-.19-.37-.25-.15-.29-.22c-.12-.24.74-.75,1.48-1.55s1.05-1.52,1.26-1.44,0,.14.19.68a2.2,2.2,0,0,0,.33.83C38.72,23,38.83,23,38.93,23.15Z"/><path class="cls-1" d="M35.74,30.11a7.32,7.32,0,0,0,.59,1.59c1.47,2.89,1.17,4,2.23,4.8,1.53,1.18,4.66.82,5.77-.74.78-1.11-.2-1.75-.78-7.12a6.41,6.41,0,0,0-.79-3.23,5.55,5.55,0,0,0-3.28-2.21,2.24,2.24,0,0,0-1.64-.07c-.53.26-.56.73-1.21,2.37s-1,1.94-1,2.82A6.2,6.2,0,0,0,35.74,30.11Z"/><path class="cls-1" d="M44,34.51a3.91,3.91,0,0,0-3.12-1.3,3.61,3.61,0,0,0-2.76,1c-.46.53-.35.89-.56,3.54-.2,2.42-.36,3,0,4a3.6,3.6,0,0,0,1.12,1.69,3.66,3.66,0,0,0,2.87.73,3.32,3.32,0,0,0,2.5-1.9c.24-.67-.06-.82,0-2.27.06-1.25.29-1.34.37-2.48S44.59,35.32,44,34.51Z"/><path class="cls-1" d="M35.73,36.71c-1-.17-3.21-.55-6.25-.86-4.92-.5-5.71-.19-6.06.35a2.42,2.42,0,0,0,.2,2.39c.76,1.19,2.06,1,6.77,2.32a11.9,11.9,0,0,1,3,1.06c1.6.91,1.54,1.54,2.89,2.07a5.47,5.47,0,0,0,3.93,0,5.07,5.07,0,0,0,1.14-.71c.58-.46,2.13-1.7,2-3.33a2.7,2.7,0,0,0-1.15-1.92,3.18,3.18,0,0,0-1.78-.42C39.15,37.64,39.84,37.43,35.73,36.71Z"/><path class="cls-1" d="M28.41,43.74c-.05-3.21-.19-3.9-.59-4.71-.19-.38-1.21-2.45-3-2.58a1.8,1.8,0,0,0-1.47.46c-.57.72.15,2,.81,3.68.9,2.32.27,1.75,1.52,5.88,1.33,4.44,1.11,4.94.9,5.23a4.9,4.9,0,0,1-1.78,1.23c-.72.32-1.27.39-1.28.63s.64.53,1,.63a3.77,3.77,0,0,0,1.71,0c.23,0,.52-.13,1.09-.31,1.28-.39,1.93-.59,2-.8.26-.49-.25-1.18-.51-1.61C28.14,50.13,28.51,49.43,28.41,43.74Z"/><path class="cls-1" d="M37.28,44.87c.15,1,.5,3.23,1.17,6.2,1.08,4.83,1.62,5.48,2.24,5.64a2.36,2.36,0,0,0,2.2-.94c.9-1.1.32-2.28.07-7.15A11.9,11.9,0,0,1,43,45.45c.35-1.81,1-2,1-3.4a5.43,5.43,0,0,0-1.25-3.72,5.28,5.28,0,0,0-1-.86c-.62-.4-2.29-1.49-3.78-.81a2.73,2.73,0,0,0-1.46,1.71,3.15,3.15,0,0,0,.16,1.81C37.09,41.34,36.67,40.75,37.28,44.87Z"/><path class="cls-1" d="M46.85,59.11c-1.34-2.91-1.74-3.49-2.43-4.07-.32-.27-2.1-1.76-3.75-1.17-.17.06-1,.35-1.17,1-.23.89.94,1.76,2.23,3.05,1.75,1.76,1,1.49,3.75,4.78,3,3.53,3,4.07,2.92,4.42A4.82,4.82,0,0,1,47.27,69c-.53.59-1,.87-.93,1.1s.81.23,1.19.17a3.88,3.88,0,0,0,1.56-.73c.18-.13.41-.33.87-.72,1-.87,1.53-1.32,1.55-1.56,0-.55-.71-1-1.12-1.27C49.16,65.08,49.22,64.29,46.85,59.11Z"/><path class="cls-1" d="M40.08,27.14c.19.32.38.37,1.1,1.2.31.36.52.64.61.75a11.35,11.35,0,0,0,2.46,2.38c.62.4,1.1.71,1.42.53s.38-1.11.25-1.63a7.87,7.87,0,0,0-1.86-2.8,4.55,4.55,0,0,1-.57-.81c-.37-.67-.32-.93-.53-1.27a2,2,0,0,0-2.58-.66A1.89,1.89,0,0,0,40.08,27.14Z"/><path class="cls-1" d="M45.93,34.13c1.57,2.22,1.44,1.61,2.58,3.27.62.89,1.16,1.8,1.69,1.7a.68.68,0,0,0,.4-.32c.6-.91-.78-2.26-2.29-5.7a6.27,6.27,0,0,0-1.7-2.69c-.21-.17-1.21-1-1.78-.67s-.4,1-.39,1.3C44.47,31.86,44.79,32.53,45.93,34.13Z"/><path class="cls-1" d="M50.27,41.23c.12.17,0,.3.16.45a.52.52,0,0,0,.5.15c.22-.08.15-.35.45-.67s.24-.14.41-.33a1.37,1.37,0,0,0,.29-.65,1.52,1.52,0,0,0-.19-.94A3.17,3.17,0,0,0,50.6,38c-.53-.35-.71-.33-.79-.31-.44.12-.58.79-.62.93a3.1,3.1,0,0,0,.12,1.27c.18.9.36,1.06.44,1.11S50.14,41,50.27,41.23Z"/><path class="cls-1" d="M42.34,33.11c1.57,2.22,1.44,1.61,2.59,3.27.61.89,1.15,1.79,1.68,1.69a.65.65,0,0,0,.4-.31c.6-.91-.78-2.26-2.29-5.71A6.3,6.3,0,0,0,43,29.37c-.2-.17-1.21-1-1.78-.67s-.39,1-.39,1.3C40.88,30.83,41.2,31.51,42.34,33.11Z"/><path class="cls-1" d="M46.69,40.21c.11.17,0,.3.16.44a.49.49,0,0,0,.49.16c.22-.09.15-.35.46-.67s.23-.14.4-.33a1.37,1.37,0,0,0,.29-.65,1.5,1.5,0,0,0-.18-.94A3.17,3.17,0,0,0,47,36.94c-.54-.35-.72-.33-.8-.31-.43.11-.58.79-.61.93a3.05,3.05,0,0,0,.11,1.27c.18.9.36,1.05.44,1.11S46.55,40,46.69,40.21Z"/><path class="cls-1" d="M21.44,71.53l6.93-.32-.3.7a15.76,15.76,0,0,1-4.54.47,16.42,16.42,0,0,1-2.48-.33,38.31,38.31,0,0,1-1.16-4.11,37,37,0,0,1-.79-5.54l.83-1.63Q20.7,66.14,21.44,71.53Z"/><path class="cls-2" d="M30.67,70.59l-9.24.47-1.32-9,7.77-4.39Z"/></svg>