<svg id="Layer_1" data-name="Layer 1" xmlns="http://www.w3.org/2000/svg" xmlns:xlink="http://www.w3.org/1999/xlink" viewBox="0 0 61.2 79.2"><defs><style>.cls-1{fill:#fff;}.cls-2{opacity:0.42;fill:url(#linear-gradient);}</style><linearGradient id="linear-gradient" x1="60.67" y1="182.64" x2="64.55" y2="182.64" gradientTransform="matrix(0.46, -0.89, 1.09, 0.56, -211.58, -10.27)" gradientUnits="userSpaceOnUse"><stop offset="0" stop-color="#fff"/><stop offset="1" stop-color="#fff" stop-opacity="0"/></linearGradient></defs><title>TimelineFigures</title><path class="cls-1" d="M27.3,23.91c.1.13.29,0,.65.18a.68.68,0,0,1,.3.24c.06.12,0,.17.09.24s.5,0,.57.08,0,.18-.16.45-.08.17-.07.23.13.15.25.24.23.33.33.45.9.12,1.38-.08,1-.78,1.85-1.84a3.8,3.8,0,0,0,1-1.68,2.84,2.84,0,0,0,0-1,1.84,1.84,0,0,1,.17-.37c.19-.37.32-.42.3-.56s-.41-.29-.42-.54.13-.17.15-.37-.08-.21-.16-.45,0-.4-.08-.61-.31-.16-.46-.42,0-.39-.19-.58-.27-.11-.37-.26,0-.43-.1-.52-.28.13-.56.1c-.09,0-.13,0-.57-.34s-.42-.28-.47-.29c-.29-.08-.38.11-.71.06s-.37-.25-.57-.21-.21.36-.55.55-.33,0-.61.18-.21.27-.48.44-.62.1-.75.31,0,.24,0,.52a1.62,1.62,0,0,1-.39.59c-.29.35-.35.36-.37.49s.11.33.07.6-.25.3-.26.53a.73.73,0,0,0,.38.58c.21.14.31.05.42.17s0,.5.07,1c.07.28.19.32.29.48a.59.59,0,0,1,.08.2,1.1,1.1,0,0,1,0,.51C27.28,23.83,27.26,23.85,27.3,23.91Z"/><path class="cls-1" d="M34.34,24.09c.42.49-.23,2-1.3,2.7-.14.09-.59.38-.85.22s-.1-.31-.34-.56-.4-.16-.56-.42-.08-.23-.21-.36-.27-.13-.31-.21c-.13-.23.69-.79,1.39-1.63s1-1.58,1.17-1.51.05.13.23.66a1.92,1.92,0,0,0,.38.81C34.13,24,34.24,24,34.34,24.09Z"/><path class="cls-1" d="M31.58,31.23a6.55,6.55,0,0,0,.68,1.55c1.64,2.8,1.4,3.91,2.51,4.66,1.6,1.09,4.7.54,5.71-1.08.71-1.15-.29-1.74-1.19-7.06a6.57,6.57,0,0,0-1-3.18,5.59,5.59,0,0,0-3.41-2,2.23,2.23,0,0,0-1.64,0c-.52.3-.52.77-1.07,2.44-.61,1.84-.85,2-.87,2.89A6,6,0,0,0,31.58,31.23Z"/><path class="cls-1" d="M40.43,34.74a3.9,3.9,0,0,0-3.11-1.3,3.62,3.62,0,0,0-2.77,1c-.46.53-.35.89-.56,3.54-.2,2.42-.36,3,0,4a3.6,3.6,0,0,0,1.12,1.69,3.68,3.68,0,0,0,2.88.73,3.32,3.32,0,0,0,2.49-1.9c.24-.67-.06-.82,0-2.27.06-1.25.3-1.34.37-2.48S41,35.55,40.43,34.74Z"/><path class="cls-1" d="M33.69,45c0,1,.05,3.26.3,6.3.41,4.93.86,5.65,1.45,5.89a2.38,2.38,0,0,0,2.31-.63c1-1,.63-2.21,1-7.08a12.4,12.4,0,0,1,.49-3.13c.6-1.74,1.23-1.79,1.5-3.22a5.36,5.36,0,0,0-.72-3.85,4.94,4.94,0,0,0-.91-1c-.56-.48-2.06-1.78-3.63-1.31a2.69,2.69,0,0,0-1.68,1.48,3.17,3.17,0,0,0-.09,1.83C34,41.46,33.64,40.82,33.69,45Z"/><path class="cls-1" d="M40.06,61.81c-.22-3.19-.39-3.88-.83-4.66-.21-.37-1.35-2.39-3.1-2.42a1.75,1.75,0,0,0-1.45.53c-.53.75.26,2,1,3.63,1,2.27.36,1.73,1.82,5.8,1.57,4.36,1.37,4.87,1.18,5.17A5,5,0,0,1,37,71.18c-.71.36-1.25.46-1.25.7s.67.5,1.05.57a3.73,3.73,0,0,0,1.71-.13c.22,0,.51-.16,1.07-.36,1.26-.46,1.9-.69,2-.91.23-.5-.31-1.17-.59-1.58C40.12,68.21,40.45,67.49,40.06,61.81Z"/><path class="cls-1" d="M38.19,61.08c.55-3.16.55-3.87.31-4.73-.12-.41-.74-2.64-2.42-3.09a1.79,1.79,0,0,0-1.54.16c-.69.61-.22,2,.11,3.78.45,2.44-.06,1.76.38,6.06.47,4.61.16,5.05-.1,5.3a4.85,4.85,0,0,1-2,.87c-.78.19-1.33.15-1.39.39s.53.64.88.8a3.69,3.69,0,0,0,1.7.28c.22,0,.53,0,1.12-.09,1.34-.14,2-.22,2.16-.41.34-.43,0-1.2-.2-1.67C36.71,67.31,37.21,66.69,38.19,61.08Z"/><path class="cls-1" d="M30.88,29.88c-.17.34-.1.52-.42,1.57-.14.46-.26.79-.31.92a11.32,11.32,0,0,0-.68,3.36c0,.74,0,1.31.32,1.48s1.14-.28,1.5-.66a7.61,7.61,0,0,0,1.36-3.08,5.45,5.45,0,0,1,.39-.91c.36-.68.61-.77.78-1.13A2,2,0,0,0,33,28.9,1.89,1.89,0,0,0,30.88,29.88Z"/><path class="cls-1" d="M29.22,33c-1.94-1.9-1.7-1.32-3.13-2.76-.76-.77-1.45-1.56-1.95-1.36a.67.67,0,0,0-.35.38c-.42,1,1.18,2.08,3.28,5.2a6.17,6.17,0,0,0,2.14,2.34c.24.14,1.37.77,1.87.35s.21-1.07.15-1.35C31.06,34.93,30.62,34.33,29.22,33Z"/><path class="cls-1" d="M24.9,26.85c0-.19.07-.28,0-.47a.48.48,0,0,0-.41-.32c-.23,0-.26.27-.66.45-.23.11-.28,0-.5.16a1.39,1.39,0,0,0-.51.49,1.5,1.5,0,0,0-.17.95,3.09,3.09,0,0,0,.73,1.66c.36.53.54.57.62.58.45.06.83-.51.91-.64a3,3,0,0,0,.36-1.21c.17-.91.06-1.12,0-1.2S25,27.08,24.9,26.85Z"/><path class="cls-1" d="M34.45,32.34c-.25.29-.22.48-.78,1.43-.23.41-.43.71-.51.83a11,11,0,0,0-1.43,3.11c-.18.71-.31,1.26,0,1.51s1.16,0,1.61-.3a7.61,7.61,0,0,0,2-2.68,4.68,4.68,0,0,1,.59-.8c.51-.57.77-.61,1-.92a2,2,0,0,0-.22-2.65A1.89,1.89,0,0,0,34.45,32.34Z"/><path class="cls-1" d="M29.91,37.2c-2.6.81-2,.87-3.91,1.44-1.05.3-2.07.53-2.14,1.07a.66.66,0,0,0,.17.48c.68.85,2.39,0,6.14-.4A6.21,6.21,0,0,0,33.25,39c.23-.14,1.33-.83,1.19-1.47-.1-.48-.84-.7-1.11-.78C32.53,36.53,31.79,36.63,29.91,37.2Z"/><path class="cls-1" d="M21.64,40.39c-.15.14-.29.07-.42.21a.5.5,0,0,0-.1.51c.11.21.37.11.72.38s.17.22.37.36a1.24,1.24,0,0,0,.68.22,1.52,1.52,0,0,0,.91-.29,3.1,3.1,0,0,0,1.13-1.42c.29-.57.25-.75.22-.83-.16-.41-.84-.49-1-.5a3.07,3.07,0,0,0-1.25.25c-.88.28-1,.48-1.05.56S21.82,40.24,21.64,40.39Z"/><path class="cls-1" d="M19,43.14a.79.79,0,0,1-.39.08,26.83,26.83,0,0,1-5.93-1.57,1.17,1.17,0,0,1-.18-.21.61.61,0,0,1-.08-.19,24,24,0,0,1,.94-3.76l6.74,1.69.07.42a24.18,24.18,0,0,1,3.27.7c.53.16,1.8.53,1.78.76s-.21.14-.33.16A2.64,2.64,0,0,1,23.41,41a21.68,21.68,0,0,0-3.27-.83l-.41.27A16.94,16.94,0,0,1,19.1,43,.56.56,0,0,1,19,43.14Z"/><path class="cls-1" d="M22.09,28.52a3.51,3.51,0,0,0,1.82-.68,6.23,6.23,0,0,1,2.5-.94,3.86,3.86,0,0,0,.95-.48c0-.05-.73.2-.75.13s.7-.38.67-.44-.8.21-.81.17.71-.34.7-.39-.76.22-.79.15.67-.41.66-.44A6.05,6.05,0,0,0,26,26a4.92,4.92,0,0,1-2.43,1.25,3.12,3.12,0,0,0-1.65.69c-.08.08-.27.27-.22.41S22,28.52,22.09,28.52Z"/><path class="cls-2" d="M19.3,38.93h0a4.88,4.88,0,0,0-.77-1.21c-.52-.62-.72-.51-1.06-1s-.19-.75-.51-1-.63-.08-1.3-.4a2.11,2.11,0,0,1-.8-.58c-.29-.35-.21-.52-.52-.92a2.89,2.89,0,0,0-.67-.58,4.09,4.09,0,0,0-1.19-.53,2.16,2.16,0,0,1,.81.85,2.42,2.42,0,0,1,.25,1.13c0,.58-.18.77,0,1.1s.34.29.45.54.12.59-.31,1.24Z"/></svg>